<?xml version="1.0" encoding="utf-8"?>
<!-- Generator: Adobe Illustrator 16.0.0, SVG Export Plug-In . SVG Version: 6.00 Build 0)  -->
<!DOCTYPE svg PUBLIC "-//W3C//DTD SVG 1.1//EN" "http://www.w3.org/Graphics/SVG/1.1/DTD/svg11.dtd">
<svg version="1.1" id="Layer_1" xmlns="http://www.w3.org/2000/svg" xmlns:xlink="http://www.w3.org/1999/xlink" x="0px" y="0px"
	 width="354.09px" height="537.079px" viewBox="0 0 354.09 537.079" enable-background="new 0 0 354.09 537.079"
	 xml:space="preserve">
<path fill="#8C6239" d="M116.68,179c-4.913-4.189-159.052,278,31.81,295c190.861,17,205.251-34,125.726-300
	C274.216,174,189.389,241,116.68,179z"/>
<path fill="#8C6239" d="M81.652,135.071C78.458,129.254,46.167,8.09,193.832,22.08C341.498,36.069,286.559,164.061,283.5,167.5
	C278,173.687,154.913,268.508,81.652,135.071z"/>
<path fill="#A67C52" d="M172,83c0,0-90.271-36.457-69.271,27.5C120.522,164.689,163,152,172,129c0,0,13.412,37.079,64.33,11
	S269.5,28.61,172,83z"/>
<path fill="#F9D523" stroke="#754C24" stroke-width="6" stroke-miterlimit="10" d="M114.679,100.685c0,0,20.702-36.467,46.511-3.351
	C184.363,127.067,113.345,152.018,114.679,100.685z"/>
<path fill="#F9D523" stroke="#754C24" stroke-width="6" stroke-miterlimit="10" d="M191.665,96.333c0,0,25.585-36.668,47.19,0
	C257.993,128.809,185.828,140.333,191.665,96.333z"/>
<path fill="#8C6239" d="M192.832,24.08c0,0,58.355,5.507,90.168-1.124c27-5.627-10.768,31.739-10.768,31.739
	S194.664,45.159,192.832,24.08z"/>
<path fill="#8C6239" d="M135.248,32.21c0,0-54.899-4.562-63.748-5.21c-17.018-1.247,2.748,20,35.124,21S135.248,32.21,135.248,32.21
	z"/>
<path fill="#FBB03B" d="M135.38,481c0,0,7.62,32-10.38,31s-15.679,2-10.339,14c0,0,3.129-9,9.234-9l5.207,9l6.279-14l10.504,9
	l-0.389-17.5l8.538-17.154L135.38,481z"/>
<path fill="#FBB03B" d="M241.777,481.028c0,0-3.071,26.984,0.42,27.984C245.688,510.012,251,521,251,521v-10l13,10v-11l15.141,11
	L260,498v-26L241.777,481.028z"/>
<path fill="#8C6239" d="M135,460c-5.797,5.002-7-1-5,20s17.761,4,15.38,0c-2.381-4,2.115,20.574,6.867,10.287
	S160,471.946,160,471.946S154,498,160,487s0-27,0-27H135z"/>
<path fill="#8C6239" d="M264.203,460c6.781,5.002,8.188-1,5.848,20s-20.773,4-17.988,0c2.783-4-2.474,20.574-8.033,10.287
	c-5.559-10.287-9.066-18.342-9.066-18.342s7.018,26.055,0,15.055s0-27,0-27H264.203L264.203,460z"/>
<path fill="#754C24" d="M110.561,208.321C116.273,189.834,77.484,137,59.242,242C41,347,7,449,26,468s24-12,26-20
	c0,0,1.965,36.127,13.482,26.062S86.494,431,86.494,431s-11.886,45,0.31,45C99,476,100,435,100,435S72.5,331.5,110.561,208.321z"/>
<g>
	<g>
		<path fill="#8C6239" d="M-0.625,246.402c0.414,0,2.205-0.804,1.249-0.804C0.211,245.598-1.58,246.402-0.625,246.402
			L-0.625,246.402z"/>
	</g>
</g>
<circle fill="#44271E" cx="138.25" cy="108.75" r="9.75"/>
<circle fill="#44271E" cx="217.25" cy="103.75" r="9.75"/>
<ellipse fill="#FCF7E0" cx="220.126" cy="100.962" rx="2.876" ry="1.962"/>
<ellipse fill="#FCF7E0" cx="143.126" cy="103.962" rx="2.876" ry="1.962"/>
<path fill="#42210B" d="M168.122,136.667c0,0,0.109-13,7.239-16c7.13-3,9.229,16,9.229,16s5.035,3.333,7.553,4.667
	c2.519,1.334-0.42,4.333-4.615,5.667c0,0-7.1,12.926-7.65,24c0,0-4.718,6.667-6.135-2s-6.354-22.667-12.648-23
	C161.093,146,155.431,141.334,168.122,136.667z"/>
<path fill="#603813" d="M183.245,68.77c0.276-2.129,29.051-43.374,73.569-33.739c0,0,13.185,2.968,25.185-9.032
	s16.667,5.42,0,15.043c0,0-1.34,8.29,10.997-3.043S290.062,53.711,279,54.694s-37.667-10.029-51.667,0.638
	S181.157,84.874,183.245,68.77z"/>
<path fill="#603813" d="M166.06,69.083c-0.25-1.916-26.294-39.034-66.585-30.363c0,0-11.933,2.671-22.794-8.128
	c-10.861-10.799-15.085,4.878,0,13.538c0,0,1.213,7.46-9.953-2.739c-11.166-10.2,2.655,14.14,12.668,15.024
	c10.012,0.885,34.091-9.026,46.762,0.574C138.829,66.589,167.949,83.575,166.06,69.083z"/>
<path fill="#A67C52" d="M114.5,255c0,0,4.477-9.656,25.5-23.94c21.023-14.284,16.745-14.833,14.667-20.358
	c-2.078-5.525,16.833,2.131,11.333,20.465c-1.592,5.307,12.667-8,10.167-21s15.167,12,15.167,12s13.041,10.587,16-12.667
	c1.366-10.736,18.911-6.607,16.512,8.43c-2.512,15.737,4.496,9.147,6.321-0.596s62.242,143.084,25.94,189.022
	c-26.773,33.881,0.814,24.705-4.293,30.588c-5.106,5.881-19.547-1.178-17.033-17.648c2.513-16.469-2.311,17.359-15.78,20.445
	c-13.47,3.084-31.412-8.68-19.5-22.797c11.912-14.119-28.025,9.252-19.333,17.723c8.691,8.473-28.185,4.314-24.333-13.332
	c3.852-17.648-16.485-9.037-5.651,8.42c9.864,15.893-0.516,8.246-17.932-5.752C80.449,382.362,114.5,255,114.5,255z"/>
<path fill="#754C24" d="M257.959,243.521C245.77,213,308.783,143.387,325.456,226.118c46.185,229.166-103.403,85.148-153.003,12.689
	c-9.692-14.159-32.295-10.194-36.203-14.159c-7.03-7.131,10.738-11.469,9.091-10.649c-8.136,4.05-25.249-3.153-14.027-8
	s24.521-6.323,24.521-6.323s-25.291,0.037-25.475-3.932c-0.36-7.744,37.293-10.367,37.753-14.16
	c2.057-16.986,6.002-41.097,11.846-41.412c2.825-0.152,6.631,26.456,14.062,35.827C218.814,207.257,262.141,253.99,257.959,243.521z
	"/>
</svg>
