<?xml version="1.0" encoding="utf-8"?>
<!-- Generator: Adobe Illustrator 16.0.0, SVG Export Plug-In . SVG Version: 6.00 Build 0)  -->
<!DOCTYPE svg PUBLIC "-//W3C//DTD SVG 1.1//EN" "http://www.w3.org/Graphics/SVG/1.1/DTD/svg11.dtd">
<svg version="1.1" xmlns="http://www.w3.org/2000/svg" xmlns:xlink="http://www.w3.org/1999/xlink" x="0px" y="0px" width="500px"
	 height="500px" viewBox="0 0 500 500" enable-background="new 0 0 500 500" xml:space="preserve">
<g id="LeftLeg">
	<g>
		<path fill="#6E5D6B" d="M192.963,374.1c0,0-11.502,20.624-13.485,31.333c0,0-5.553-1.983-12.692,3.569
			c-7.139,5.553-16.342,25.78-5.593,33.315c10.749,7.536,25.707,23.4,46.586,13.089c20.879-10.312,19.292-24.193,19.292-24.193
			l5.949-18.244L192.963,374.1z"/>
		<path fill="#FFFFFF" d="M179.479,416.444c0,0-16.658-2.813-14.807,17.018c1.851,19.83,32.522,19.302,38.339,15.335
			C208.828,444.831,219.669,426.133,179.479,416.444z"/>
	</g>
	<g id="Left" display="none">
		<g display="inline">
			<path fill="#C62127" d="M129.704,697.707c0,0-18.598,17.125-31.125,30.625s-26.375,32.875-26.375,32.875
				s18.875-17.25,32.375-32.5S129.704,697.707,129.704,697.707z"/>
			<path fill="#C62127" d="M113.286,694.534c0,0-16.21,14.926-27.129,26.692c-10.918,11.767-22.988,28.653-22.988,28.653
				s16.451-15.035,28.218-28.326C103.153,708.261,113.286,694.534,113.286,694.534z"/>
			<path fill="#C62127" d="M128.003,715.522c0,0-11.547,10.633-19.325,19.016c-7.778,8.382-16.376,20.412-16.376,20.412
				s11.719-10.711,20.102-20.18C120.786,725.301,128.003,715.522,128.003,715.522z"/>
		</g>
	</g>
</g>
<g id="Body">
	<g>
		<g>
			<path fill="#6E5D6B" d="M222.709,288.035c0,0-35.299,16.261-36.488,49.974c-1.19,33.712,14.288,84.083,55.333,89.238
				c41.044,5.156,67.618-13.484,75.153-37.281c7.537-23.797-7.535-61.476-24.589-82.1
				C275.063,287.242,222.709,288.035,222.709,288.035z"/>
			<path opacity="0.2" d="M277.202,297.361c6.014,2.668,11.271,6.097,14.916,10.505c17.054,20.624,32.126,58.303,24.589,82.1
				c-5.496,17.359-21.125,31.976-45.111,36.61c0,0,29.725-22.771,31.627-66.621C305.125,316.105,277.202,297.361,277.202,297.361z"
				/>
		</g>
		<path fill="#FFFFFF" d="M225.882,304.693c0,0-16.752,18.601-15.175,53.378c1.577,34.775,12.742,58.468,41.722,60.45
			c28.98,1.983,50.157-35.057,31.756-80.116c-18.4-45.06-13.881-31.026-23.004-36.534
			C252.059,296.364,229.173,300.183,225.882,304.693z"/>
	</g>
	<g id="Layer_10" display="none">
		<g display="inline">
			<path fill="#9E2D35" d="M245.806,584.284c0,0-0.806,18.441,2.194,19.941s4.5-17.729,4.5-17.729"/>
			<path fill="#9E2D35" d="M264.916,599.225c0,0,0,31.5,0,43.5s1.448,19.5,4.016,19.5s0.932-50.5,0-60.5
				S264.916,599.225,264.916,599.225z"/>
			<circle fill="#9E2D35" cx="290.925" cy="566.058" r="3.944"/>
			<ellipse fill="#9E2D35" cx="224.667" cy="497.726" rx="1.667" ry="1"/>
			<circle fill="#9E2D35" cx="229.236" cy="515.294" r="4.57"/>
			<path fill="#9E2D35" d="M248.738,477.309c0,0-16.806,31-13.806,74s44.916,66,44.916,66s4.272-70-7.322-108
				C260.932,471.309,248.738,477.309,248.738,477.309z"/>
			<path fill="#9E2D35" d="M238.121,556.225c0,0-4.379,50.5,0,59s2.879-20.5,5.379-29.5s0-20,0-20L238.121,556.225z"/>
		</g>
	</g>
</g>
<g id="RightLeg">
	<g>
		<path fill="#6E5D6B" d="M281.409,420.504c0,0,9.122,18.244,27.367,24.59c18.244,6.347,36.885-5.155,41.645-12.295
			c4.76-7.139,8.727-26.573,2.379-32.126c-6.346-5.553-10.311-3.173-15.07-3.569s-15.469-29.746-25.779-34.902
			C301.637,357.045,281.409,420.504,281.409,420.504z"/>
		<path fill="#FFFFFF" d="M330.639,413.549c-2.066,4.131-4.6,14.555-5.832,18.775c-1.836,6.274,3.572,8.13,6.436,8.13
			c4.787,0,15.693-12.752,19.418-22.649C354.385,407.909,338.088,398.659,330.639,413.549z"/>
	</g>
	<g id="Layer_12" display="none">
		<circle display="inline" fill="#9A1C24" cx="443.574" cy="635.66" r="18.893"/>
		<path display="inline" fill="#9A1C24" d="M436.023,649.225c0,0,0,19,0,36.25s0.477,33,2.727,32.75s2.5-67,2.5-67L436.023,649.225z
			"/>
		<path display="inline" fill="#9A1C24" d="M446.25,654.174c0,0-0.5,12.051,0,15.551s4.213,9,4.231-2.75s-2.227-15.75-2.227-15.75
			L446.25,654.174z"/>
	</g>
</g>
<g id="RightArm">
	<path fill="#6E5D6B" d="M277.645,302.61c0,0,35.164-14.103,66.898-8.528c31.734,5.575,23.586,31.306,12.865,36.022
		s-53.605,6.004-68.614-3.859C273.786,316.381,277.645,302.61,277.645,302.61z"/>
	<g id="Layer_11" display="none">
		<g display="inline">
			<path fill="#C62127" d="M491.217,391.03c0,0-18.598,17.125-31.125,30.625s-26.375,32.875-26.375,32.875s18.875-17.25,32.375-32.5
				S491.217,391.03,491.217,391.03z"/>
			<path fill="#C62127" d="M474.799,387.857c0,0-16.21,14.926-27.129,26.692c-10.918,11.767-22.988,28.653-22.988,28.653
				s16.451-15.035,28.218-28.326C464.666,401.584,474.799,387.857,474.799,387.857z"/>
			<path fill="#C62127" d="M489.517,408.845c0,0-11.547,10.633-19.325,19.016c-7.778,8.382-16.376,20.412-16.376,20.412
				s11.719-10.711,20.102-20.18C482.299,418.625,489.517,408.845,489.517,408.845z"/>
		</g>
	</g>
</g>
<g id="LeftArm">
	<path fill="#6E5D6B" d="M205.622,302.61c0,0-35.164-14.103-66.898-8.528c-31.734,5.575-23.586,31.306-12.865,36.022
		c10.721,4.717,53.604,6.004,68.613-3.859S205.622,302.61,205.622,302.61z"/>
	<g display="none">
		<polygon display="inline" fill="#ED1F24" points="42,373.378 45.333,429.726 51.022,374.122 		"/>
		<polygon display="inline" fill="#ED1F24" points="32,372.684 31,446.892 34,373.378 		"/>
		<polygon display="inline" fill="#ED1F24" points="16.746,372.739 20,402.975 23.5,372.739 		"/>
		<path display="inline" fill="#B29B84" d="M25.125,401.552c0,0,28.5,0,37.25,0s11.75-3.75,11.75-8s-3-10-10-10s-46,0-54.5,0
			c-14.5,0-15.75,3.75-15.75,9s5.75,9,15.5,9S25.125,401.552,25.125,401.552z"/>
	</g>
</g>
<g id="Head">
	<g>
		<g>
			<path fill="#ED1F24" d="M243.069,299.272c0,0,50.37-0.264,59.36-27.366s-5.817-56.98-20.228-68.351
				c-14.41-11.369-46.537-22.343-80.513-4.098c-5.672,3.045-10.194,7.049-13.778,11.633c-17.885,22.875-12.397,60.199-9.754,65.046
				C181.33,281.954,185.295,301.785,243.069,299.272z"/>
			<path fill="#ED1F24" d="M183.84,217.208c0,0-19.83-109.634-3.171-145.33c16.658-35.695,46.007-40.455,57.906-13.088
				c11.898,27.367-15.468,128.107-18.641,137.229c-3.173,9.122-23.797,24.193-23.797,24.193L183.84,217.208z"/>
			<path fill="#ED1F24" d="M270.7,202.762c0,0-2.776-46.801,6.743-92.808c9.519-46.007,31.729-70.994,51.163-65.045
				c19.436,5.949,14.676,49.899,5.553,78.493c-9.121,28.594-39.264,96.415-44.42,96.812S270.7,202.762,270.7,202.762z"/>
			<path fill="#ED1F24" d="M262.717,193.464c8.044,2.63,14.729,6.339,19.485,10.091c14.41,11.37,29.218,41.248,20.228,68.351
				c-3.538,10.666-13.485,17.175-24.248,21.147c0,0,16.99-35.716,12.888-62.131C286.968,204.507,262.717,193.464,262.717,193.464z"
				/>
			<path fill="#ED1F24" d="M186.158,213.49c0,0-4.823-73.79,0-106.312s11.829-69.113,30.074-61.476
				c18.245,7.637,29.085,29.35,14.014,72.581c-15.072,43.231-34.902,88.445-34.902,88.445L186.158,213.49z"/>
			<path fill="#ED1F24" d="M284.582,201.572c0,0-10.31-54.97-4.759-86.859s19.06-68.614,42.25-65.838
				c23.191,2.776,20.02,31.333,12.879,51.56c-7.139,20.228-41.247,100.344-43.627,103.914
				C288.944,207.918,284.582,201.572,284.582,201.572z"/>
			<path fill="#ED1F24" d="M207.78,270.319c0,0,0.376,20.513,22.129,16.801s19.374-16.355,15.408-29.071
				c-1.454-5.048-16.261-0.288-20.889,1.033C219.801,260.404,207.657,264.238,207.78,270.319z"/>
			<path fill="#ED1F24" d="M219.537,256.726c0,0-4.892,3.678-3.437,7.776c1.454,4.098,6.61,5.287,10.312,3.834
				c3.702-1.454,7.323-5.42,4.653-11.105C228.395,251.546,220.686,255.688,219.537,256.726z"/>
			<path fill="#ED1F24" d="M254.307,243.747c0,0-1.719,3.833,0,6.478c1.718,2.645,4.626,7.14,6.081,7.8
				c1.455,0.661,3.305-8.857,1.719-11.766C260.521,243.349,256.687,242.292,254.307,243.747z"/>
			<path fill="#ED1F24" d="M198.12,253.132c0,0-2.644,5.592-1.851,8.48c0.793,2.89,3.438,2.625,4.23-2.135
				c0.793-4.759,0.133-5.553-0.925-6.346C198.516,252.339,199.309,252.603,198.12,253.132z"/>
			<path fill="#ED1F24" d="M222.049,279.209c0,0,13.055-3.669,16.03-7.536c0,0,2.578,8.429-5.057,11.305
				C228.59,284.647,223.867,282.78,222.049,279.209z"/>
		</g>
		<g display="none">
			<g display="inline">
				<path fill="#ED1F24" d="M254.058,244.698c0,0-1.374,18.441,3.742,19.941c5.115,1.5,7.672-17.729,7.672-17.729"/>
				<path fill="#ED1F24" d="M286.639,259.639c0,0,0,31.5,0,43.5s2.469,19.5,6.848,19.5c4.381,0,1.59-50.5,0-60.5
					C291.898,252.139,286.639,259.639,286.639,259.639z"/>
				<ellipse fill="#ED1F24" cx="330.985" cy="226.472" rx="6.726" ry="3.944"/>
				<ellipse fill="#ED1F24" cx="218.016" cy="158.14" rx="2.842" ry="1"/>
				<ellipse fill="#ED1F24" cx="225.807" cy="175.708" rx="7.792" ry="4.57"/>
				<path fill="#ED1F24" d="M259.056,137.723c0,0-28.653,31-23.539,74s76.582,66,76.582,66s7.283-70-12.484-108
					S259.056,137.723,259.056,137.723z"/>
				<path fill="#ED1F24" d="M240.956,216.639c0,0-7.466,50.5,0,59s4.909-20.5,9.171-29.5c4.263-9,0-20,0-20L240.956,216.639z"/>
			</g>
		</g>
	</g>
	<g>
		<g>
			<path fill="#6E5D6B" d="M243.069,299.272c0,0,50.37-0.264,59.36-27.366s-5.817-56.98-20.228-68.351
				c-14.41-11.369-46.537-22.343-80.513-4.098c-5.672,3.045-10.194,7.049-13.778,11.633c-17.885,22.875-12.397,60.199-9.754,65.046
				C181.33,281.954,185.295,301.785,243.069,299.272z"/>
			<path fill="#6E5D6B" d="M183.84,217.208c0,0-19.83-109.634-3.171-145.33c16.658-35.695,46.007-40.455,57.906-13.088
				c11.898,27.367-15.468,128.107-18.641,137.229c-3.173,9.122-23.797,24.193-23.797,24.193L183.84,217.208z"/>
			<path fill="#6E5D6B" d="M270.7,202.762c0,0-2.776-46.801,6.743-92.808c9.519-46.007,31.729-70.994,51.163-65.045
				c19.436,5.949,14.676,49.899,5.553,78.493c-9.121,28.594-39.264,96.415-44.42,96.812S270.7,202.762,270.7,202.762z"/>
			<path opacity="0.2" d="M262.717,193.464c8.044,2.63,14.729,6.339,19.485,10.091c14.41,11.37,29.218,41.248,20.228,68.351
				c-3.538,10.666-13.485,17.175-24.248,21.147c0,0,16.99-35.716,12.888-62.131C286.968,204.507,262.717,193.464,262.717,193.464z"
				/>
			<path fill="#FFFFFF" d="M186.158,213.49c0,0-4.823-73.79,0-106.312s11.829-69.113,30.074-61.476
				c18.245,7.637,29.085,29.35,14.014,72.581c-15.072,43.231-34.902,88.445-34.902,88.445L186.158,213.49z"/>
			<path fill="#FFFFFF" d="M284.582,201.572c0,0-10.31-54.97-4.759-86.859s19.06-68.614,42.25-65.838
				c23.191,2.776,20.02,31.333,12.879,51.56c-7.139,20.228-41.247,100.344-43.627,103.914
				C288.944,207.918,284.582,201.572,284.582,201.572z"/>
			<path fill="#FFFFFF" d="M207.78,270.319c0,0,0.376,20.513,22.129,16.801s19.374-16.355,15.408-29.071
				c-1.454-5.048-16.261-0.288-20.889,1.033C219.801,260.404,207.657,264.238,207.78,270.319z"/>
			<path fill="#DA9BC5" d="M219.537,256.726c0,0-4.892,3.678-3.437,7.776c1.454,4.098,6.61,5.287,10.312,3.834
				c3.702-1.454,7.323-5.42,4.653-11.105C228.395,251.546,220.686,255.688,219.537,256.726z"/>
			<path d="M254.307,243.747c0,0-1.719,3.833,0,6.478c1.718,2.645,4.626,7.14,6.081,7.8c1.455,0.661,3.305-8.857,1.719-11.766
				C260.521,243.349,256.687,242.292,254.307,243.747z"/>
			<path d="M198.12,253.132c0,0-2.644,5.592-1.851,8.48c0.793,2.89,3.438,2.625,4.23-2.135c0.793-4.759,0.133-5.553-0.925-6.346
				C198.516,252.339,199.309,252.603,198.12,253.132z"/>
			<path d="M222.049,279.209c0,0,13.055-3.669,16.03-7.536c0,0,2.578,8.429-5.057,11.305
				C228.59,284.647,223.867,282.78,222.049,279.209z"/>
		</g>
		<g display="none">
			<g display="inline">
				<path fill="#9E2D35" d="M254.058,244.698c0,0-1.374,18.441,3.742,19.941c5.115,1.5,7.672-17.729,7.672-17.729"/>
				<path fill="#9E2D35" d="M286.639,259.639c0,0,0,31.5,0,43.5s2.469,19.5,6.848,19.5c4.381,0,1.59-50.5,0-60.5
					C291.898,252.139,286.639,259.639,286.639,259.639z"/>
				<ellipse fill="#9E2D35" cx="330.985" cy="226.472" rx="6.726" ry="3.944"/>
				<ellipse fill="#9E2D35" cx="218.016" cy="158.14" rx="2.842" ry="1"/>
				<ellipse fill="#9E2D35" cx="225.807" cy="175.708" rx="7.792" ry="4.57"/>
				<path fill="#9E2D35" d="M259.056,137.723c0,0-28.653,31-23.539,74s76.582,66,76.582,66s7.283-70-12.484-108
					S259.056,137.723,259.056,137.723z"/>
				<path fill="#9E2D35" d="M240.956,216.639c0,0-7.466,50.5,0,59s4.909-20.5,9.171-29.5c4.263-9,0-20,0-20L240.956,216.639z"/>
			</g>
		</g>
	</g>
</g>
</svg>
