<?xml version="1.0" encoding="utf-8"?>
<!-- Generator: Adobe Illustrator 16.0.0, SVG Export Plug-In . SVG Version: 6.00 Build 0)  -->
<!DOCTYPE svg PUBLIC "-//W3C//DTD SVG 1.1//EN" "http://www.w3.org/Graphics/SVG/1.1/DTD/svg11.dtd">
<svg version="1.1" id="Layer_1" xmlns="http://www.w3.org/2000/svg" xmlns:xlink="http://www.w3.org/1999/xlink" x="0px" y="0px"
	 width="500px" height="500px" viewBox="0 0 500 500" enable-background="new 0 0 500 500" xml:space="preserve">
<g id="LeftLeg">
	<g>
		<path fill="#6E5D6B" d="M193.461,377.861c0,0-11.403,20.447-13.369,31.063c0,0-5.505-1.966-12.583,3.539
			c-7.078,5.505-16.201,25.559-5.545,33.029c10.657,7.471,25.486,23.199,46.186,12.976c20.7-10.224,19.127-23.984,19.127-23.984
			l5.898-18.088L193.461,377.861z"/>
		<path fill="#FFFFFF" d="M180.092,419.841c0,0-16.515-2.789-14.68,16.871s32.243,19.136,38.01,15.204
			S219.938,429.447,180.092,419.841z"/>
	</g>
	<g id="Left">
		<g>
			<path fill="#C62127" d="M197.67,425.04c0,0-7.312,6.733-12.238,12.042c-4.926,5.308-10.371,12.927-10.371,12.927
				s7.422-6.783,12.73-12.778C193.099,431.232,197.67,425.04,197.67,425.04z"/>
			<path fill="#C62127" d="M191.214,423.792c0,0-6.374,5.869-10.667,10.496s-9.04,11.267-9.04,11.267s6.469-5.912,11.096-11.139
				C187.23,429.19,191.214,423.792,191.214,423.792z"/>
			<path fill="#C62127" d="M197.001,432.044c0,0-4.54,4.181-7.599,7.479c-3.059,3.295-6.439,8.024-6.439,8.024
				s4.607-4.211,7.904-7.935C194.164,435.89,197.001,432.044,197.001,432.044z"/>
		</g>
	</g>
</g>
<g id="Body">
	<g>
		<g>
			<path fill="#6E5D6B" d="M222.952,292.536c0,0-34.996,16.122-36.175,49.544c-1.18,33.423,14.166,83.36,54.857,88.472
				c40.692,5.112,67.037-13.368,74.507-36.961c7.473-23.593-7.471-60.946-24.377-81.396
				C274.855,291.75,222.952,292.536,222.952,292.536z"/>
			<path opacity="0.2" enable-background="new    " d="M276.977,301.782c5.961,2.645,11.174,6.045,14.787,10.413
				c16.908,20.447,31.851,57.803,24.378,81.396c-5.448,17.21-20.943,31.7-44.724,36.296c0,0,29.469-22.574,31.354-66.049
				C304.659,320.365,276.977,301.782,276.977,301.782z"/>
		</g>
		<path fill="#FFFFFF" d="M226.098,309.05c0,0-16.608,18.441-15.045,52.919c1.563,34.479,12.632,57.967,41.363,59.933
			c28.73,1.966,49.726-34.757,31.482-79.429c-18.241-44.672-13.762-30.76-22.806-36.22S229.36,304.58,226.098,309.05z"/>
	</g>
	<g id="Layer_10">
		<g>
			<path fill="#9E2D35" d="M243.322,380.441c0,0-0.317,7.25,0.863,7.841c1.18,0.59,1.77-6.972,1.77-6.972"/>
			<path fill="#9E2D35" d="M250.836,386.316c0,0,0,12.386,0,17.104c0,4.719,0.568,7.667,1.579,7.667c1.01,0,0.366-19.856,0-23.789
				C252.049,383.367,250.836,386.316,250.836,386.316z"/>
			<circle fill="#9E2D35" cx="261.062" cy="373.274" r="1.551"/>
			<ellipse fill="#9E2D35" cx="235.01" cy="346.406" rx="0.655" ry="0.394"/>
			<circle fill="#9E2D35" cx="236.807" cy="353.314" r="1.797"/>
			<path fill="#9E2D35" d="M244.475,338.377c0,0-6.608,12.189-5.429,29.098c1.18,16.907,17.662,25.951,17.662,25.951
				s1.681-27.523-2.879-42.466C249.27,336.018,244.475,338.377,244.475,338.377z"/>
			<path fill="#9E2D35" d="M240.301,369.408c0,0-1.722,19.857,0,23.199c1.722,3.343,1.132-8.062,2.115-11.601s0-7.864,0-7.864
				L240.301,369.408z"/>
		</g>
	</g>
</g>
<g id="RightLeg">
	<g>
		<path fill="#6E5D6B" d="M281.146,423.867c0,0,9.043,18.088,27.131,24.379c18.088,6.292,36.567-5.111,41.287-12.189
			c4.719-7.076,8.649-26.345,2.358-31.85s-10.224-3.146-14.941-3.539c-4.719-0.393-15.335-29.49-25.559-34.602
			C301.2,360.954,281.146,423.867,281.146,423.867z"/>
		<path fill="#FFFFFF" d="M329.953,416.971c-2.048,4.097-4.561,14.431-5.783,18.614c-1.818,6.221,3.543,8.062,6.381,8.062
			c4.747,0,15.561-12.644,19.252-22.455C353.495,411.379,337.338,402.209,329.953,416.971z"/>
	</g>
	<g id="Layer_12">
		<circle fill="#9A1C24" cx="321.086" cy="400.642" r="7.429"/>
		<path fill="#9A1C24" d="M318.117,405.977c0,0,0,7.471,0,14.254c0,6.781,0.188,12.976,1.072,12.877s0.981-26.346,0.981-26.346
			L318.117,405.977z"/>
		<path fill="#9A1C24" d="M322.139,407.922c0,0-0.196,4.738,0,6.114s1.656,3.539,1.663-1.081c0.008-4.62-0.875-6.193-0.875-6.193
			L322.139,407.922z"/>
	</g>
</g>
<g id="RightArm">
	<path fill="#6E5D6B" d="M277.415,306.986c0,0,34.862-13.981,66.323-8.455c31.461,5.527,23.383,31.035,12.754,35.713
		c-10.629,4.677-53.145,5.951-68.023-3.826S277.415,306.986,277.415,306.986z"/>
	<g id="Layer_11">
		<g>
			<path fill="#C62127" d="M339.819,304.452c0,0-7.312,6.733-12.238,12.042s-10.371,12.927-10.371,12.927s7.422-6.782,12.73-12.778
				C335.248,310.646,339.819,304.452,339.819,304.452z"/>
			<path fill="#C62127" d="M333.364,303.205c0,0-6.374,5.868-10.668,10.495c-4.293,4.627-9.039,11.267-9.039,11.267
				s6.469-5.91,11.096-11.138S333.364,303.205,333.364,303.205z"/>
			<path fill="#C62127" d="M339.151,311.458c0,0-4.541,4.181-7.6,7.478c-3.059,3.295-6.438,8.025-6.438,8.025
				s4.606-4.212,7.903-7.936C336.312,315.302,339.151,311.458,339.151,311.458z"/>
		</g>
	</g>
</g>
<g id="LeftArm">
	<path fill="#6E5D6B" d="M206.011,306.986c0,0-34.862-13.981-66.323-8.455c-31.461,5.527-23.383,31.035-12.754,35.713
		c10.628,4.677,53.143,5.951,68.023-3.826S206.011,306.986,206.011,306.986z"/>
	<g>
		<polygon fill="#ED1F24" points="163.185,297.511 164.495,319.667 166.732,297.803 		"/>
		<polygon fill="#ED1F24" points="159.252,297.238 158.859,326.417 160.039,297.511 		"/>
		<polygon fill="#ED1F24" points="153.254,297.26 154.534,309.148 155.91,297.26 		"/>
		<path fill="#B29B84" d="M156.549,308.589c0,0,11.206,0,14.647,0c3.44,0,4.62-1.476,4.62-3.146c0-1.672-1.18-3.934-3.932-3.934
			c-2.752,0-18.087,0-21.43,0c-5.702,0-6.193,1.475-6.193,3.539s2.261,3.539,6.095,3.539
			C154.19,308.589,156.549,308.589,156.549,308.589z"/>
	</g>
</g>
<g id="Head">
	<g>
		<g>
			<path fill="#ED1F24" d="M243.137,303.677c0,0,49.937-0.262,58.85-27.132c8.913-26.869-5.767-56.491-20.054-67.763
				c-14.287-11.272-46.137-22.15-79.821-4.063c-5.623,3.021-10.107,6.989-13.66,11.533c-17.731,22.678-12.291,59.682-9.67,64.487
				C181.927,286.506,185.859,306.167,243.137,303.677z"/>
			<path fill="#ED1F24" d="M184.417,222.318c0,0-19.659-108.691-3.145-144.08c16.514-35.389,45.612-40.107,57.408-12.976
				c11.796,27.131-15.335,127.006-18.481,136.05c-3.146,9.043-23.592,23.985-23.592,23.985L184.417,222.318z"/>
			<path fill="#ED1F24" d="M270.529,207.997c0,0-2.752-46.398,6.686-92.011c9.438-45.612,31.457-70.384,50.725-64.486
				c19.267,5.898,14.548,49.471,5.505,77.818c-9.044,28.348-38.929,95.586-44.04,95.979
				C284.292,225.691,270.529,207.997,270.529,207.997z"/>
			<path fill="#ED1F24" d="M262.616,198.778c7.975,2.607,14.603,6.285,19.317,10.004c14.285,11.272,28.966,40.894,20.053,67.763
				c-3.508,10.574-13.369,17.027-24.039,20.966c0,0,16.844-35.409,12.777-61.597C286.657,209.726,262.616,198.778,262.616,198.778z"
				/>
			<path fill="#ED1F24" d="M186.714,218.631c0,0-4.781-73.155,0-105.398c4.781-32.243,11.728-68.519,29.815-60.947
				c18.088,7.571,28.835,29.097,13.894,71.957c-14.942,42.86-34.602,87.685-34.602,87.685L186.714,218.631z"/>
			<path fill="#ED1F24" d="M284.292,206.817c0,0-10.222-54.497-4.718-86.112c5.503-31.615,18.896-68.025,41.887-65.272
				c22.992,2.752,19.847,31.063,12.77,51.117c-7.078,20.054-40.895,99.481-43.254,103.021
				C288.618,213.108,284.292,206.817,284.292,206.817z"/>
			<path fill="#ED1F24" d="M208.15,274.973c0,0,0.373,20.336,21.939,16.655c21.567-3.68,19.208-16.215,15.275-28.821
				c-1.442-5.005-16.122-0.285-20.709,1.024C220.068,265.141,208.029,268.943,208.15,274.973z"/>
			<path fill="#ED1F24" d="M219.806,261.497c0,0-4.849,3.646-3.408,7.709c1.442,4.063,6.554,5.242,10.224,3.801
				c3.669-1.44,7.26-5.373,4.613-11.01C228.588,256.361,220.946,260.467,219.806,261.497z"/>
			<path fill="#ED1F24" d="M254.277,248.628c0,0-1.704,3.802,0,6.422c1.703,2.621,4.586,7.078,6.029,7.733
				c1.441,0.654,3.276-8.782,1.703-11.665C260.438,248.235,256.637,247.186,254.277,248.628z"/>
			<path fill="#ED1F24" d="M198.573,257.934c0,0-2.622,5.543-1.835,8.407c0.786,2.864,3.408,2.603,4.194-2.116
				c0.787-4.719,0.131-5.504-0.917-6.291C198.966,257.146,199.753,257.409,198.573,257.934z"/>
			<path fill="#ED1F24" d="M222.297,283.787c0,0,12.943-3.639,15.892-7.473c0,0,2.556,8.356-5.013,11.207
				C228.782,289.177,224.099,287.326,222.297,283.787z"/>
		</g>
		<g>
			<g>
				<path fill="#ED1F24" d="M246.567,246.913c0,0-0.54,7.252,1.471,7.842c2.011,0.59,3.017-6.971,3.017-6.971"/>
				<path fill="#ED1F24" d="M259.378,252.789c0,0,0,12.386,0,17.104c0,4.719,0.972,7.668,2.692,7.668c1.723,0,0.625-19.856,0-23.789
					S259.378,252.789,259.378,252.789z"/>
				<ellipse fill="#ED1F24" cx="276.814" cy="239.747" rx="2.646" ry="1.551"/>
				<ellipse fill="#ED1F24" cx="232.395" cy="212.878" rx="1.117" ry="0.394"/>
				<ellipse fill="#ED1F24" cx="235.459" cy="219.786" rx="3.064" ry="1.797"/>
				<path fill="#ED1F24" d="M248.532,204.85c0,0-11.267,12.189-9.255,29.097c2.012,16.908,30.114,25.951,30.114,25.951
					s2.863-27.523-4.91-42.465C256.708,202.491,248.532,204.85,248.532,204.85z"/>
				<path fill="#ED1F24" d="M241.415,235.88c0,0-2.936,19.856,0,23.199c2.936,3.342,1.93-8.062,3.606-11.6
					c1.676-3.539,0-7.864,0-7.864L241.415,235.88z"/>
			</g>
		</g>
	</g>
	<g>
		<g>
			<path fill="#6E5D6B" d="M243.137,303.677c0,0,49.937-0.262,58.85-27.132c8.913-26.869-5.767-56.491-20.054-67.763
				c-14.287-11.272-46.137-22.15-79.821-4.063c-5.623,3.021-10.107,6.989-13.66,11.533c-17.731,22.678-12.291,59.682-9.67,64.487
				C181.927,286.506,185.859,306.167,243.137,303.677z"/>
			<path fill="#6E5D6B" d="M184.417,222.318c0,0-19.659-108.691-3.145-144.08c16.514-35.389,45.612-40.107,57.408-12.976
				c11.796,27.131-15.335,127.006-18.481,136.05c-3.146,9.043-23.592,23.985-23.592,23.985L184.417,222.318z"/>
			<path fill="#6E5D6B" d="M270.529,207.997c0,0-2.752-46.398,6.686-92.011c9.438-45.612,31.457-70.384,50.725-64.486
				c19.267,5.898,14.548,49.471,5.505,77.818c-9.044,28.348-38.929,95.586-44.04,95.979
				C284.292,225.691,270.529,207.997,270.529,207.997z"/>
			<path opacity="0.2" enable-background="new    " d="M262.616,198.778c7.975,2.607,14.603,6.285,19.317,10.004
				c14.285,11.272,28.966,40.894,20.053,67.763c-3.508,10.574-13.369,17.027-24.039,20.966c0,0,16.844-35.409,12.777-61.597
				C286.657,209.726,262.616,198.778,262.616,198.778z"/>
			<path fill="#FFFFFF" d="M186.714,218.631c0,0-4.781-73.155,0-105.398c4.781-32.243,11.728-68.519,29.815-60.947
				c18.088,7.571,28.835,29.097,13.894,71.957c-14.942,42.86-34.602,87.685-34.602,87.685L186.714,218.631z"/>
			<path fill="#FFFFFF" d="M284.292,206.817c0,0-10.222-54.497-4.718-86.112c5.503-31.615,18.896-68.025,41.887-65.272
				c22.992,2.752,19.847,31.063,12.77,51.117c-7.078,20.054-40.895,99.481-43.254,103.021
				C288.618,213.108,284.292,206.817,284.292,206.817z"/>
			<path fill="#FFFFFF" d="M208.15,274.973c0,0,0.373,20.336,21.939,16.655c21.567-3.68,19.208-16.215,15.275-28.821
				c-1.442-5.005-16.122-0.285-20.709,1.024C220.068,265.141,208.029,268.943,208.15,274.973z"/>
			<path fill="#DA9BC5" d="M219.806,261.497c0,0-4.849,3.646-3.408,7.709c1.442,4.063,6.554,5.242,10.224,3.801
				c3.669-1.44,7.26-5.373,4.613-11.01C228.588,256.361,220.946,260.467,219.806,261.497z"/>
			<path d="M254.277,248.628c0,0-1.704,3.802,0,6.422c1.703,2.621,4.586,7.078,6.029,7.733c1.441,0.654,3.276-8.782,1.703-11.665
				C260.438,248.235,256.637,247.186,254.277,248.628z"/>
			<path d="M198.573,257.934c0,0-2.622,5.543-1.835,8.407c0.786,2.864,3.408,2.603,4.194-2.116c0.787-4.719,0.131-5.504-0.917-6.291
				C198.966,257.146,199.753,257.409,198.573,257.934z"/>
		</g>
		<g>
			<g>
				<path fill="#9E2D35" d="M246.567,246.913c0,0-0.54,7.252,1.471,7.842c2.011,0.59,3.017-6.971,3.017-6.971"/>
				<path fill="#9E2D35" d="M259.378,252.789c0,0,0,12.386,0,17.104c0,4.719,0.972,7.668,2.692,7.668c1.723,0,0.625-19.856,0-23.789
					S259.378,252.789,259.378,252.789z"/>
				<ellipse fill="#9E2D35" cx="276.814" cy="239.747" rx="2.646" ry="1.551"/>
				<ellipse fill="#9E2D35" cx="232.395" cy="212.878" rx="1.117" ry="0.394"/>
				<ellipse fill="#9E2D35" cx="235.459" cy="219.786" rx="3.064" ry="1.797"/>
				<path fill="#9E2D35" d="M248.532,204.85c0,0-11.267,12.189-9.255,29.097c2.012,16.908,30.114,25.951,30.114,25.951
					s2.863-27.523-4.91-42.465C256.708,202.491,248.532,204.85,248.532,204.85z"/>
				<path fill="#9E2D35" d="M241.415,235.88c0,0-2.936,19.856,0,23.199c2.936,3.342,1.93-8.062,3.606-11.6
					c1.676-3.539,0-7.864,0-7.864L241.415,235.88z"/>
			</g>
		</g>
	</g>
</g>
</svg>
