<?xml version="1.0" encoding="utf-8"?>
<!-- Generator: Adobe Illustrator 16.0.0, SVG Export Plug-In . SVG Version: 6.00 Build 0)  -->
<!DOCTYPE svg PUBLIC "-//W3C//DTD SVG 1.1//EN" "http://www.w3.org/Graphics/SVG/1.1/DTD/svg11.dtd">
<svg version="1.1" id="banana" xmlns="http://www.w3.org/2000/svg" xmlns:xlink="http://www.w3.org/1999/xlink" x="0px" y="0px"
	 width="600px" height="610px" viewBox="0 0 600 610" enable-background="new 0 0 600 610" xml:space="preserve">
<g id="body">
	<g>
		
			<linearGradient id="SVGID_1_" gradientUnits="userSpaceOnUse" x1="668.8848" y1="89.2578" x2="1062.4365" y2="89.2578" gradientTransform="matrix(1 0 0 -1 -588 394)">
			<stop  offset="0" style="stop-color:#FCEE1E"/>
			<stop  offset="1" style="stop-color:#F6EC13"/>
		</linearGradient>
		<path fill="url(#SVGID_1_)" d="M355.547,81.305c-16.791-8.747-34.736-13.873-53.227-15.688
			c31.376,119.729,59.949,173.986,7.725,274.221C257.821,440.08,163.783,498.784,80.884,490.646
			c12.083,14.123,26.563,25.882,43.358,34.629c92.079,47.976,260.766,1.515,324.641-121.084
			C512.756,281.593,447.629,129.28,355.547,81.305z"/>
	</g>
	<polygon fill="#443300" points="113.332,490.332 84.429,481.757 71.701,505.908 104.373,512.814 	"/>
	<polygon fill="#443300" points="330.902,71.264 309.979,48.048 277.661,69.371 309.189,90.577 	"/>
	<circle stroke="#FFFFFF" stroke-miterlimit="10" cx="360.199" cy="231.807" r="10.287"/>
	<path stroke="#FFFFFF" stroke-miterlimit="10" d="M386.215,221.52c5.685,0,10.291,4.606,10.291,10.288
		c0,5.681-4.606,10.287-10.291,10.287c-5.679,0-10.285-4.606-10.285-10.287C375.93,226.126,380.536,221.52,386.215,221.52z"/>
	<path fill="#FCB316" d="M353.284,261.875c0,11.194,9.083,20.283,20.282,20.283c11.203,0,20.281-9.089,20.281-20.283H353.284z"/>
</g>
<g id="hiphop">
	<path fill="#FFFFFF" d="M471.014,342.195l3.074-26.276l-46.938-1.508c3.726,4.534,5.909,9.831,5.909,15.516
		c0,16.608-18.299,30.073-40.879,30.073c-22.576,0-40.875-13.465-40.875-30.073c0-6.625,2.949-12.731,7.881-17.7l-35.688-1.147
		l-11.845,23.526c17.431,0,13.123,11.687,5.452,27.343c-11.16,22.761-17.338,22.184-34.769,22.184l-52.183,54.636l133.61,58.449
		c0,0,29.211-19.873,51.336-44.771c8.181-9.203,16.568-19.934,22.756-29.359c8.18-12.464,12.975-22.525,12.975-22.525
		c-17.435,0-11.38-9.356-11.38-26.791C439.45,356.334,453.58,342.195,471.014,342.195z"/>
	<g>
		<circle fill="#FED402" cx="382.147" cy="351.356" r="31.491"/>
		<path fill="#FEC80B" d="M382.147,384.314c-18.175,0-32.962-14.778-32.962-32.959c0-18.172,14.787-32.959,32.962-32.959
			c18.172,0,32.959,14.785,32.959,32.959C415.106,369.533,400.319,384.314,382.147,384.314z M382.147,321.334
			c-16.558,0-30.024,13.468-30.024,30.021c0,16.555,13.469,30.021,30.024,30.021c16.555,0,30.022-13.468,30.022-30.021
			S398.696,321.334,382.147,321.334z"/>
	</g>
	<g>
		<g>
			<path fill="#FEC80B" d="M410.374,334.604L410.374,334.604c-3.612,0-6.143-1.432-6.44-3.647c-0.344-2.597,2.685-4.987,7.053-5.569
				c4.477-0.613,7.93,0.943,8.27,3.521c0.188,1.404-0.574,2.768-2.154,3.844c-1.276,0.865-3.014,1.482-4.896,1.73
				C411.579,334.564,410.965,334.604,410.374,334.604z M412.812,328.191c-0.465,0-0.947,0.031-1.438,0.098
				c-3.116,0.419-4.586,1.855-4.53,2.271c0.043,0.307,1.189,1.102,3.529,1.102c0.465,0,0.946-0.032,1.44-0.098
				c1.416-0.188,2.743-0.648,3.637-1.254c0.718-0.484,0.911-0.897,0.896-1.023C416.305,328.988,415.155,328.191,412.812,328.191z"/>
		</g>
		<g>
			<path fill="#FEC80B" d="M418.164,328.941c-3.623-0.002-6.154-1.437-6.447-3.655c-0.117-0.869,0.142-1.749,0.748-2.547
				c1.162-1.521,3.518-2.652,6.301-3.021c4.476-0.613,7.929,0.94,8.274,3.516c0.345,2.597-2.688,4.996-7.052,5.582
				C419.362,328.902,418.749,328.941,418.164,328.941z M420.596,322.527c-0.463,0-0.943,0.037-1.438,0.098
				c-2.24,0.307-3.8,1.167-4.355,1.898c-0.142,0.181-0.182,0.312-0.172,0.375c0.039,0.305,1.187,1.106,3.535,1.109
				c0.461,0,0.938-0.033,1.432-0.098c3.119-0.421,4.592-1.861,4.537-2.282C424.09,323.327,422.941,322.527,420.596,322.527z"/>
		</g>
		<g>
			<path fill="#FEC80B" d="M427.766,323.955c-3.625,0-6.154-1.432-6.453-3.646c-0.114-0.873,0.144-1.76,0.752-2.56
				c1.164-1.521,3.516-2.642,6.298-3.015c4.457-0.588,7.927,0.94,8.271,3.517c0.351,2.603-2.685,4.993-7.05,5.581
				C428.963,323.915,428.354,323.955,427.766,323.955z M430.192,317.543c-0.466,0-0.946,0.031-1.44,0.096
				c-2.232,0.301-3.791,1.16-4.348,1.896c-0.145,0.181-0.188,0.323-0.178,0.384c0.039,0.309,1.189,1.102,3.541,1.102
				c0.463,0,0.941-0.03,1.43-0.098c3.117-0.419,4.586-1.855,4.531-2.271C433.686,318.343,432.535,317.543,430.192,317.543z"/>
		</g>
		<g>
			<path fill="#FEC80B" d="M437.713,318.939L437.713,318.939c-3.625,0-6.16-1.433-6.459-3.644c-0.188-1.405,0.578-2.769,2.156-3.846
				c1.279-0.866,3.018-1.482,4.898-1.735c4.514-0.594,7.93,0.955,8.271,3.527c0.347,2.587-2.685,4.979-7.05,5.566
				C438.902,318.898,438.295,318.939,437.713,318.939z M440.127,312.529c-0.459,0-0.941,0.031-1.435,0.098
				c-1.411,0.184-2.738,0.648-3.634,1.256c-0.715,0.485-0.909,0.896-0.893,1.024c0.04,0.307,1.188,1.096,3.545,1.096l0,0
				c0.459,0,0.936-0.032,1.426-0.099c3.117-0.418,4.586-1.853,4.528-2.269C443.629,313.324,442.479,312.529,440.127,312.529z"/>
		</g>
		<g>
			<path fill="#FEC80B" d="M448.188,313.918L448.188,313.918c-3.622,0-6.154-1.432-6.456-3.646c-0.188-1.404,0.58-2.771,2.156-3.846
				c1.279-0.869,3.018-1.483,4.896-1.735c4.488-0.583,7.928,0.946,8.273,3.527c0.115,0.869-0.144,1.75-0.752,2.541
				c-1.16,1.531-3.516,2.658-6.301,3.028C449.383,313.877,448.773,313.918,448.188,313.918z M450.606,307.508
				c-0.462,0-0.943,0.031-1.435,0.092c-1.41,0.188-2.736,0.647-3.632,1.256c-0.717,0.484-0.911,0.9-0.895,1.023
				c0.04,0.309,1.192,1.102,3.545,1.102l0,0c0.459,0,0.938-0.03,1.429-0.098c2.236-0.298,3.801-1.16,4.354-1.896
				c0.145-0.184,0.185-0.314,0.176-0.372C454.105,308.305,452.955,307.508,450.606,307.508z"/>
		</g>
		<g>
			<path fill="#FEC80B" d="M457.678,309.064L457.678,309.064c-3.621,0-6.153-1.426-6.449-3.643
				c-0.117-0.869,0.141-1.758,0.752-2.552c1.16-1.529,3.521-2.653,6.301-3.026c4.468-0.594,7.934,0.949,8.271,3.528
				c0.344,2.593-2.688,4.987-7.051,5.569C458.879,309.023,458.27,309.064,457.678,309.064z M460.11,302.652
				c-0.464,0-0.942,0.032-1.437,0.098c-2.24,0.298-3.801,1.162-4.359,1.896c-0.141,0.184-0.182,0.318-0.176,0.375
				c0.041,0.307,1.188,1.104,3.539,1.104c0.465,0,0.94-0.031,1.435-0.092c3.114-0.424,4.586-1.861,4.532-2.277
				C463.602,303.452,462.451,302.652,460.11,302.652z"/>
		</g>
		<g>
			<path fill="#FEC80B" d="M466.822,304.032c-3.617,0-6.152-1.428-6.447-3.648c-0.115-0.872,0.143-1.758,0.754-2.549
				c1.161-1.529,3.52-2.65,6.301-3.023c4.482-0.6,7.92,0.946,8.27,3.519c0.188,1.405-0.576,2.771-2.154,3.849
				c-1.277,0.866-3.017,1.483-4.897,1.732C468.021,303.991,467.407,304.032,466.822,304.032z M469.258,297.619
				c-0.463,0-0.943,0.032-1.438,0.098c-2.24,0.298-3.805,1.162-4.354,1.893c-0.145,0.189-0.185,0.324-0.18,0.384
				c0.043,0.307,1.189,1.101,3.539,1.101c0.456,0,0.938-0.032,1.432-0.098c1.414-0.186,2.744-0.648,3.641-1.256
				c0.711-0.485,0.912-0.898,0.895-1.024C472.747,298.416,471.6,297.619,469.258,297.619z"/>
		</g>
	</g>
	<g>
		<g>
			<path fill="#FEC80B" d="M336.043,304.872L336.043,304.872c-2.175,0-4.578-2.071-6.121-5.28c-1.906-3.969-1.567-7.821,0.787-8.954
				c2.324-1.13,5.605,1.038,7.49,4.964c0.823,1.709,1.268,3.502,1.244,5.051c-0.028,1.901-0.745,3.295-2.027,3.912
				C336.988,304.769,336.529,304.872,336.043,304.872z M332.082,293.268c-0.479,0.201-0.875,2.217,0.487,5.056
				c1.14,2.36,2.75,3.611,3.474,3.611c0.065,0,0.092-0.011,0.104-0.014c0.113-0.055,0.35-0.448,0.361-1.308
				c0.018-1.075-0.334-2.443-0.953-3.731C334.42,294.521,332.809,293.268,332.082,293.268z"/>
		</g>
		<g>
			<path fill="#FEC80B" d="M343.895,312.771L343.895,312.771c-2.174,0-4.577-2.074-6.12-5.283c-1.91-3.975-1.571-7.818,0.78-8.957
				c2.306-1.124,5.601,1.041,7.49,4.97c1.91,3.976,1.571,7.827-0.785,8.96C344.842,312.667,344.379,312.771,343.895,312.771z
				 M339.932,301.164c-0.482,0.195-0.873,2.217,0.486,5.05c1.137,2.36,2.75,3.619,3.477,3.619c0.062,0,0.086-0.011,0.098-0.017
				c0.379-0.185,0.771-2.2-0.588-5.045C342.266,302.42,340.654,301.164,339.932,301.164z"/>
		</g>
		<g>
			<path fill="#FEC80B" d="M351.92,321.174L351.92,321.174c-2.175,0-4.578-2.068-6.121-5.279c-1.906-3.974-1.57-7.821,0.787-8.957
				c2.34-1.112,5.604,1.053,7.49,4.974c1.904,3.975,1.568,7.825-0.792,8.959C352.865,321.07,352.407,321.174,351.92,321.174z
				 M347.953,309.566c-0.479,0.191-0.869,2.22,0.49,5.057c1.136,2.357,2.747,3.607,3.477,3.607c0.039,0,0.071-0.002,0.092-0.015
				c0.385-0.181,0.779-2.202-0.586-5.042C350.29,310.823,348.682,309.566,347.953,309.566z"/>
		</g>
		<g>
			<path fill="#FEC80B" d="M359.473,328.699L359.473,328.699c-2.168,0-4.57-2.074-6.116-5.283c-1.907-3.979-1.569-7.823,0.788-8.956
				c2.273-1.103,5.627,1.09,7.484,4.974c0.826,1.703,1.266,3.496,1.242,5.041c-0.025,1.907-0.746,3.299-2.027,3.912
				C360.42,328.596,359.961,328.699,359.473,328.699z M355.516,317.09c-0.481,0.2-0.873,2.217,0.49,5.053
				c1.135,2.366,2.748,3.619,3.471,3.619c0.064,0,0.092-0.011,0.098-0.017c0.111-0.058,0.354-0.444,0.364-1.308
				c0.014-1.084-0.333-2.441-0.952-3.729C357.854,318.346,356.238,317.09,355.516,317.09z"/>
		</g>
	</g>
	<g>
		<path fill="#FAA61A" d="M360.532,362.729c0.181-1.041,0.545-1.879,1.081-2.533c1.715-0.516,3.178-1.49,4.376-2.926
			c1.205-1.424,1.808-2.904,1.808-4.441c0-1.383-0.736-2.229-2.215-2.541c0.721-0.729,1.516-1.182,2.381-1.371
			c-0.625-3.24-2.02-4.872-4.176-4.872c-0.591,0-1.188,0.11-1.777,0.332c-0.595,0.222-1.199,0.56-1.808,1.01
			c0.063-1.286,0.388-2.426,0.97-3.397c0.551-0.262,1.09-0.447,1.605-0.57c0.518-0.127,1.01-0.189,1.48-0.189
			c1.514,0,2.765,0.394,3.75,1.18c0.986,0.787,1.844,2.078,2.572,3.865c0.422-1.084,1.143-2.11,2.148-3.061
			c1.01-0.939,2.082-1.611,3.221-1.99c0,2.34,0.766,3.976,2.297,4.885l-0.419,1.156c-1.044,1.228-2.267,2.342-3.679,3.35
			c0.433-0.047,0.8-0.071,1.105-0.071c1.606,0,2.93,0.407,3.967,1.204c1.039,0.8,1.556,1.824,1.556,3.068
			c0,1.777-1.236,3.434-3.709,4.961l-0.681,0.429c-1.145,0.711-2.019,1.554-2.629,2.532c-0.887-0.37-1.811-0.648-2.769-0.832
			c-0.958-0.182-1.956-0.275-2.987-0.275C365.152,361.62,362.663,361.986,360.532,362.729z M365.043,359.559
			c1.319-0.332,2.76-0.498,4.319-0.498c0.97,0,1.916,0.094,2.839,0.283c0.924,0.191,1.824,0.473,2.699,0.852
			c2.035-1.318,3.052-2.791,3.052-4.422c0-0.883-0.308-1.596-0.915-2.135c-0.607-0.545-1.417-0.809-2.432-0.809
			c-1.221,0-2.375,0.318-3.459,0.955c0.046-0.812,0.169-1.463,0.373-1.95c1.582-1.291,2.998-2.676,4.244-4.153
			c-1.051-0.846-1.692-1.912-1.922-3.193c-1.256,0.498-2.254,1.466-2.992,2.904c0.062,0.576,0.099,1.088,0.099,1.521
			C370.954,352.959,368.983,356.507,365.043,359.559z"/>
		<path fill="#FAA61A" d="M394.812,362.656c-0.629,0.051-1.075,0.07-1.342,0.07c-2.967,0-5.521-1.123-7.676-3.373
			c-2.15-2.244-3.229-4.918-3.229-8.013c0-1.641,0.271-3.296,0.814-4.974c1.469-1.608,3.274-3.02,5.426-4.241v-2.449l1.451-0.846
			c-0.396,2.106-0.594,4.173-0.594,6.19v2.203c0.745-2.674,1.973-4.675,3.68-6.006c1.045,0.684,2.076,1.029,3.098,1.029
			c0.511,0,1.038-0.086,1.586-0.262c0.548-0.172,1.113-0.428,1.697-0.769c-0.215,1.435-0.686,2.541-1.414,3.318
			c-0.504,0.185-0.957,0.31-1.354,0.401c-0.398,0.082-0.746,0.131-1.037,0.131c-0.832,0-1.797-0.295-2.892-0.881
			c-0.947,0.78-1.738,1.812-2.39,3.121c-0.651,1.299-0.976,2.504-0.976,3.607v0.505c0.582-1.291,1.354-2.263,2.317-2.901
			c0.96-0.644,2.113-0.971,3.453-0.971c1.798,0,3.31,0.654,4.531,1.963c1.225,1.307,1.834,2.926,1.834,4.85
			c-0.701,2.017-2.033,3.798-4,5.341l-0.662,0.53C396.176,360.98,395.397,361.793,394.812,362.656z M388.805,357.998v-14.959
			c-1.02,0.929-1.824,2.104-2.431,3.523c-0.604,1.414-0.905,2.854-0.905,4.299c0,1.32,0.277,2.574,0.838,3.765
			C386.865,355.812,387.697,356.939,388.805,357.998z M389.665,358.577c1.603,0.995,3.037,1.491,4.302,1.491
			c1.469,0,2.652-0.437,3.558-1.324c0.903-0.885,1.356-2.036,1.356-3.479c0-1.509-0.485-2.816-1.455-3.927
			c-0.967-1.106-2.113-1.663-3.434-1.663c-1.355,0-2.414,0.524-3.181,1.555c-0.763,1.033-1.146,2.467-1.146,4.299V358.577
			L389.665,358.577z"/>
	</g>
	<g>
		<polygon fill="#EF3E23" points="451.203,190.265 334.623,190.265 337.799,212.709 458.389,208.126 		"/>
		<polyline fill="#EF3E23" points="451.203,190.265 453.514,200.01 462.297,186.393 		"/>
		<polyline fill="#EF3E23" points="467.12,193.784 452.672,193.784 458.389,208.126 		"/>
	</g>
	<g id="Shoes_1_">
		<g>
			<rect x="104.935" y="583.329" fill="#430000" width="130.814" height="12.803"/>
			<path fill="#ED1A4C" d="M104.935,585.58c0-36.122,29.282-65.403,65.407-65.403c36.119,0,65.407,29.281,65.407,65.403H104.935
				L104.935,585.58z"/>
			<rect x="147.126" y="539.92" fill="#FFFFFF" width="46.43" height="4.127"/>
			<rect x="147.126" y="549.206" fill="#FFFFFF" width="46.43" height="4.127"/>
			<rect x="147.126" y="557.977" fill="#FFFFFF" width="46.43" height="4.121"/>
		</g>
		<g>
			<rect x="251.328" y="583.148" fill="#430000" width="130.812" height="12.809"/>
			<path fill="#ED1A4C" d="M382.147,585.399c0-36.122-29.29-65.406-65.409-65.406c-36.123,0-65.404,29.284-65.404,65.406H382.147z"
				/>
			<rect x="293.521" y="539.739" fill="#FFFFFF" width="46.433" height="4.121"/>
			<rect x="293.521" y="549.025" fill="#FFFFFF" width="46.433" height="4.127"/>
			<rect x="293.521" y="557.796" fill="#FFFFFF" width="46.433" height="4.127"/>
		</g>
	</g>
</g>
<g id="rock">
	
		<rect x="324.35" y="22.978" transform="matrix(-0.9837 -0.1798 0.1798 -0.9837 739.7883 212.1512)" width="110.318" height="99.141"/>
	<path d="M275.167,104.512c1.618-8.865,45.595-8.254,98.224,1.359c52.632,9.614,93.98,24.593,92.363,33.455
		c-1.619,8.865-45.595,8.257-98.229-1.359C314.899,128.354,273.546,113.375,275.167,104.512z"/>
	<circle cx="316.738" cy="137.224" r="11.156"/>
	<circle cx="313.482" cy="153.897" r="11.158"/>
	<circle cx="324.639" cy="156.787" r="11.156"/>
	<circle cx="313.482" cy="167.943" r="11.156"/>
	<path d="M330.902,131.583c6.164,0,11.16,4.996,11.16,11.157c0,6.163-4.996,11.156-11.16,11.156c-6.16,0-11.156-4.993-11.156-11.156
		C319.746,136.579,324.742,131.583,330.902,131.583z"/>
	<path d="M330.902,126.068c6.164,0,11.16,4.996,11.16,11.157c0,6.163-4.996,11.156-11.16,11.156c-6.16,0-11.156-4.993-11.156-11.156
		C319.746,131.064,324.742,126.068,330.902,126.068z"/>
	<circle cx="431.525" cy="156.787" r="11.156"/>
	<circle cx="420.369" cy="150.282" r="11.156"/>
	<circle cx="442.68" cy="167.943" r="11.156"/>
	<circle cx="450.727" cy="167.943" r="11.156"/>
	<circle cx="446.254" cy="182.581" r="11.156"/>
	<circle cx="461.883" cy="186.24" r="11.158"/>
	<circle cx="450.727" cy="199.253" r="11.156"/>
	<path d="M376.033,222.942c0,12.556-10.186,22.74-22.743,22.74c-12.562,0-22.749-10.184-22.749-22.74"/>
	<path d="M414.723,222.942c0,12.556-10.183,22.74-22.743,22.74c-12.562,0-22.746-10.184-22.746-22.74"/>
	<line fill="none" stroke="#000000" stroke-miterlimit="10" x1="410.701" y1="230.101" x2="453.836" y2="207.906"/>
	<path d="M439.084,374.307c0-17.44,14.129-31.565,31.563-31.565l3.083-26.276l-150.594-4.841l-9.648,24.433
		c17.436,0,10.927,10.774,3.255,26.432c-11.159,22.761-17.337,22.184-34.768,22.184l-52.18,54.639l133.183,57.508
		c0,0,29.635-18.93,51.764-43.83c8.178-9.209,16.564-19.934,22.752-29.359c8.18-12.464,12.975-22.525,12.975-22.525
		C433.028,401.098,439.084,391.74,439.084,374.307z"/>
	<g>
		
			<linearGradient id="SVGID_2_" gradientUnits="userSpaceOnUse" x1="830.8662" y1="-5.5649" x2="1010.6162" y2="-5.5649" gradientTransform="matrix(1 0 0 -1 -588 394)">
			<stop  offset="0" style="stop-color:#FCEE1E"/>
			<stop  offset="1" style="stop-color:#F6EC13"/>
		</linearGradient>
		<path fill="url(#SVGID_2_)" d="M422.518,311.623c2.725-4.038-51.836,0.468-56.598,0c8.076,30.822-50.617,99.249-64.06,125.053
			c-13.445,25.807-37.65,40.926-58.994,38.829c3.109,3.628,6.837,6.662,11.162,8.911c23.704,12.35,67.127,0.393,83.573-31.17
			C354.043,421.682,400.95,343.55,422.518,311.623z"/>
	</g>
	<g id="Shoes_2_">
		<g>
			<rect x="104.935" y="583.329" fill="#430000" width="130.814" height="12.803"/>
			<path d="M104.935,585.58c0-36.122,29.282-65.403,65.407-65.403c36.119,0,65.407,29.281,65.407,65.403H104.935L104.935,585.58z"/>
			<rect x="147.126" y="539.92" fill="#FFFFFF" width="46.43" height="4.127"/>
			<rect x="147.126" y="549.206" fill="#FFFFFF" width="46.43" height="4.127"/>
			<rect x="147.126" y="557.977" fill="#FFFFFF" width="46.43" height="4.121"/>
		</g>
		<g>
			<rect x="251.328" y="583.148" fill="#430000" width="130.812" height="12.809"/>
			<path d="M382.147,585.399c0-36.122-29.29-65.406-65.409-65.406c-36.123,0-65.404,29.284-65.404,65.406H382.147z"/>
			<rect x="293.521" y="539.739" fill="#FFFFFF" width="46.433" height="4.121"/>
			<rect x="293.521" y="549.025" fill="#FFFFFF" width="46.433" height="4.127"/>
			<rect x="293.521" y="557.796" fill="#FFFFFF" width="46.433" height="4.127"/>
		</g>
	</g>
</g>
<g id="love">
	<path fill="#ED1F24" d="M240.246,533.292c0-9.895-13.666-19.348-23.305-19.348l-9.499,6.062c0.092,0.13,0.201,0.238,0.287,0.37
		c5.246,8.208-2.942,22.81-18.286,32.612c-15.341,9.797-28.381,14.724-33.624,6.516c-0.086-0.132-0.138-0.281-0.215-0.416
		l-2.2,1.405l0.029,0.055c-7.457,5.443-23.839,9.806-18.797,17.692c5.045,7.896,25.999,12.766,34.08,8.289l0.032,0.046l0.906-0.574
		c0.009-0.014,0.02-0.017,0.032-0.025c0.011-0.006,0.02-0.012,0.031-0.021l59.229-37.831v34.774h2.022l4.807-38.288
		C238.926,542.762,240.246,539.26,240.246,533.292z"/>
	<path fill="#ED1F24" d="M299.396,535.354c0-9.895-13.663-19.347-23.306-19.347l-9.499,6.062c0.092,0.129,0.201,0.237,0.287,0.37
		c5.249,8.208-2.942,22.809-18.283,32.61c-15.341,9.797-28.384,14.726-33.627,6.518c-0.086-0.133-0.135-0.281-0.212-0.416
		l-2.203,1.404l0.029,0.05c-7.457,5.448-23.835,9.812-18.793,17.697c5.044,7.896,25.998,12.764,34.08,8.288l0.028,0.046l0.906-0.579
		c0.012-0.009,0.023-0.012,0.035-0.021c0.011-0.006,0.017-0.011,0.029-0.021l59.232-37.832v34.774h2.022l4.807-38.287
		C298.076,544.824,299.396,541.322,299.396,535.354z"/>
	<path fill="#ED1F24" d="M396.04,261.829c-0.665-0.671-1.411-1.288-2.231-1.844l-0.436-0.358l-0.062,0.057
		c-2.521-1.554-5.639-2.481-9.022-2.481c-4.709,0-8.916,1.772-11.688,4.566c-2.776-2.788-6.98-4.566-11.693-4.566
		c-3.363,0-6.464,0.915-8.979,2.455l-0.028-0.031l-0.207,0.175c-1.038,0.663-1.968,1.422-2.769,2.286l-9.215,7.609l9.215,7.608
		c0.801,0.858,1.729,1.624,2.769,2.286l0.207,0.169l0.028-0.026c2.289,1.403,5.078,2.249,8.094,2.389v0.04h0.498
		c0.127,0,0.256,0.026,0.385,0.026c0.189,0,0.37-0.02,0.557-0.026h22.269c0.188,0.006,0.372,0.026,0.559,0.026
		c0.132,0,0.253-0.026,0.386-0.026h1.545v-0.106c2.633-0.287,5.062-1.099,7.096-2.349l0.062,0.051l0.438-0.358
		c0.817-0.551,1.563-1.162,2.229-1.844l9.519-7.861L396.04,261.829z"/>
	<g>
		<path fill="#9C2121" d="M393.848,271.147H348.18c-0.812,0-1.469-0.663-1.469-1.468c0-0.812,0.656-1.469,1.469-1.469h45.668
			c0.811,0,1.47,0.657,1.47,1.469C395.317,270.488,394.658,271.147,393.848,271.147z"/>
	</g>
	<g>
		<path d="M349.912,220.06c-0.391,0-0.779-0.155-1.07-0.461l-7.742-8.208c-0.555-0.588-0.53-1.517,0.06-2.073
			c0.591-0.554,1.521-0.531,2.077,0.063l7.743,8.208c0.557,0.588,0.53,1.517-0.062,2.074
			C350.637,219.928,350.273,220.06,349.912,220.06z"/>
	</g>
	<g>
		<path d="M357.368,216.536c-0.588,0-1.142-0.356-1.37-0.932l-4.078-10.523c-0.293-0.763,0.084-1.612,0.84-1.898
			c0.754-0.301,1.604,0.081,1.901,0.837l4.078,10.522c0.293,0.757-0.08,1.606-0.84,1.896
			C357.723,216.504,357.547,216.536,357.368,216.536z"/>
	</g>
	<g>
		<path d="M400.359,222.226c-0.407,0-0.814-0.175-1.107-0.502c-0.529-0.611-0.47-1.54,0.145-2.074l8.501-7.419
			c0.61-0.53,1.536-0.473,2.069,0.141c0.535,0.611,0.472,1.54-0.138,2.074l-8.503,7.419
			C401.049,222.105,400.703,222.226,400.359,222.226z"/>
	</g>
	<g>
		<path d="M393.281,217.998c-0.225,0-0.447-0.052-0.66-0.158c-0.725-0.364-1.015-1.248-0.652-1.97l5.078-10.087
			c0.364-0.72,1.248-1.015,1.977-0.651c0.724,0.364,1.016,1.248,0.648,1.97l-5.076,10.087
			C394.338,217.703,393.82,217.998,393.281,217.998z"/>
	</g>
	<g>
		<path d="M386.317,217.473c-0.688,0-1.306-0.49-1.438-1.193l-2.123-11.076c-0.151-0.797,0.373-1.566,1.168-1.718
			c0.789-0.152,1.562,0.37,1.717,1.161l2.121,11.082c0.15,0.794-0.371,1.56-1.168,1.718
			C386.502,217.465,386.409,217.473,386.317,217.473z"/>
	</g>
	<g>
		<g>
			<path fill="#F6EC13" d="M437.516,364.395c0-25.623-20.76-46.379-46.377-46.379c-11.393,0-21.812,4.118-29.881,10.937
				c-8.304-12.544-22.521-20.83-38.695-20.83c-25.613,0-46.375,20.756-46.375,46.378c0,25.613,20.759,46.375,46.375,46.375
				c11.392,0,21.809-4.124,29.885-10.939c8.3,12.543,22.52,20.834,38.691,20.834"/>
			<path fill="#FED204" d="M391.141,412.625c-15.541,0-30.004-7.436-39.078-19.993c-8.432,6.527-18.825,10.099-29.494,10.099
				c-26.598,0-48.233-21.637-48.233-48.23c0-26.602,21.636-48.236,48.233-48.236c15.539,0,29.999,7.432,39.079,19.99
				c8.432-6.521,18.825-10.1,29.493-10.1c26.596,0,48.23,21.64,48.23,48.24h-3.714c0-24.551-19.967-44.522-44.521-44.522
				c-10.477,0-20.664,3.729-28.688,10.491l-1.589,1.348l-1.152-1.736c-8.288-12.527-22.173-20.002-37.146-20.002
				c-24.547,0-44.522,19.969-44.522,44.521c0,24.542,19.976,44.515,44.522,44.515c10.477,0,20.667-3.729,28.688-10.491l1.592-1.346
				l1.153,1.738c8.285,12.523,22.169,19.998,37.144,19.998L391.141,412.625L391.141,412.625z"/>
		</g>
		<g>
			<path fill="#F6EC13" d="M361.258,328.951c0,0-24.699,19.49-13.457,49.1"/>
			<path fill="#FED204" d="M346.062,378.711c-11.59-30.531,13.787-51.013,14.048-51.217l2.297,2.914
				c-0.964,0.76-23.485,19.031-12.874,46.982L346.062,378.711z"/>
		</g>
		<g>
			<circle fill="#FED204" cx="294.456" cy="340.89" r="5.101"/>
			<path fill="#F6926E" d="M294.456,347.846c-3.837,0-6.958-3.117-6.958-6.949c0-3.84,3.12-6.957,6.958-6.957
				c3.839,0,6.958,3.117,6.958,6.957C301.414,344.73,298.291,347.846,294.456,347.846z M294.456,337.645
				c-1.79,0-3.247,1.457-3.247,3.246c0,1.784,1.457,3.241,3.247,3.241c1.79,0,3.247-1.457,3.247-3.241
				C297.703,339.102,296.246,337.645,294.456,337.645z"/>
		</g>
		<g>
			<path fill="#FED204" d="M366.362,347.23c2.815,0,5.101,2.287,5.101,5.104s-2.283,5.104-5.101,5.104
				c-2.819,0-5.104-2.287-5.104-5.104S363.543,347.23,366.362,347.23z"/>
			<path fill="#F6926E" d="M366.362,359.289c-3.837,0-6.958-3.12-6.958-6.955c0-3.837,3.121-6.958,6.958-6.958
				c3.832,0,6.955,3.121,6.955,6.958C373.317,356.169,370.194,359.289,366.362,359.289z M366.362,349.088
				c-1.789,0-3.246,1.453-3.246,3.246c0,1.79,1.457,3.246,3.246,3.246c1.79,0,3.244-1.456,3.244-3.246
				C369.606,350.541,368.149,349.088,366.362,349.088z"/>
		</g>
	</g>
	<polyline points="273.775,447.557 285.181,474.055 310.864,462.998 	"/>
	<g>
		<path d="M364.35,216.685c-0.137,0-0.275-0.02-0.414-0.06c-0.779-0.229-1.227-1.044-0.992-1.821l3.178-10.827
			c0.229-0.78,1.039-1.222,1.824-0.995c0.779,0.224,1.229,1.038,0.992,1.815l-3.178,10.832
			C365.571,216.271,364.982,216.685,364.35,216.685z"/>
	</g>
</g>
<g id="vader">
	<g>
		<polygon fill="#F7EC25" points="232.479,270.238 229.247,242.095 241.892,178.873 245.604,156.804 251.758,141.851 
			266.333,112.603 270.939,84.629 295.282,52.983 321.696,40.961 340.1,40.961 380.444,48.048 402.826,76.796 422.408,152.887 
			455.416,211.075 506.891,255.276 494.581,275.418 422.965,294.441 330.902,302.833 310.629,293.323 		"/>
		<g>
			<path fill="#F7EC25" d="M372.758,40.118c4.131,0.453,8.41,0.141,12.355,1.638c4.913,1.752,10.176,2.423,14.891,4.724
				c3.647,1.772,7.445,3.355,10.676,5.859c8.263,6.396,15.676,13.861,22.254,21.966c4.027,4.666,6.916,10.167,9.367,15.794
				c4.528,10.68,7.971,21.819,10.386,33.165c1.206,4.835,0.444,9.852,1.228,14.747c0.307,4.342,0.965,8.653,1.969,12.903
				c2.881,8.257,5.752,16.609,10.08,24.255c2.159,3.335,4.565,6.524,6.487,10.018c13.407,23.13,25.595,46.946,38.545,70.323
				c0.536,1.939,1.354,3.814,1.632,5.808c-0.32,3.734-0.32,7.637-2.059,11.053c-2.834,4.153-6.74,7.385-10.893,10.118
				c-6.351,2.802-13.386,3.152-20.006,5.056c-7.986,2.134-16.234,2.888-24.279,4.738c-15.043,3.098-30.067,6.261-45.107,9.35
				c-2.35,0.453-4.736,0.56-7.066,1.084c-5.729,1.451-11.885,0.275-17.479,2.392c-3.312,1.165-6.524,2.633-9.92,3.522
				c-9.2,1.586-18.527,2.036-27.825,2.812c-4.204,0.457-8.257-1.16-12.43-1.172c-3.832-0.08-7.666-0.102-11.489-0.383
				c-1.692-0.146-3.465-0.312-4.916-1.283c-3.853-2.68-6.166-7.13-10.241-9.517c-3.828-1.997-8.148,0.367-12.131-0.829
				c-8.65-2.326-17.38-4.511-25.734-7.798c-9.046-3.975-17.747-8.679-26.495-13.276c-2.134-1.245-4.468-2.177-6.436-3.7
				c-1.199-0.863-2.793-0.918-3.992-1.772c-2.019-1.956-4.775-3.614-5.128-6.677c-0.381-4.724-0.924-9.481-0.471-14.222
				c0.625-7.457,1.205-14.931,1.928-22.373c1.663-13.193,3.895-26.305,5.845-39.46c1.744-9.444,3.731-18.843,5.911-28.187
				c1.574-6.978,3.995-13.732,6.533-20.409c0.929-2.286,1.735-4.775,3.668-6.424c1.847-1.578,3.597-3.344,5.839-4.328
				c1.072-4.376,2.194-8.739,3.29-13.109c2.36-9.045,4.161-18.237,6.427-27.312c1.147-5.885,4.079-11.177,6.312-16.68
				c1.976-3.335,4.285-6.582,7.382-8.974c3.424-2.954,6.725-6.068,10.545-8.523c6.656-4.514,13.497-8.765,20.626-12.476
				c9.219-4.566,19.684-5.53,29.799-5.991C352.653,37.869,362.646,39.63,372.758,40.118z M335.543,41.44
				c-6.322,0.686-12.682,1.62-18.732,3.648c-5.551,2.498-10.586,5.974-16.104,8.532c-4.514,1.99-8.449,5.099-11.934,8.546
				c-4.835,4.578-7.939,10.549-11.547,16.066c-1.044,1.764-2.736,3.531-2.243,5.753c0.488,0.565,0.947,1.296,1.692,1.503
				c0.568-0.278,0.757-0.958,1.101-1.44c2.876-4.927,6.184-9.619,10.055-13.824c0.964-1.084,2.022-2.105,3.264-2.856
				c5.833-3.41,11.324-7.371,17.099-10.878c4.336-2.679,9.279-4.342,14.316-5.071c2.729-0.135,5.547-0.39,7.989-1.724
				c5.065-2.581,9.968-5.489,15.009-8.128C342.191,41.316,338.818,40.304,335.543,41.44z M350.6,42.355
				c-1.594,1.663-3.225,3.304-4.977,4.807c-2.722,2.478-6.542,3.143-9.357,5.492c-5.008,4.012-9.08,9.034-13.737,13.425
				c-4.595,4.747-6.41,11.3-8.541,17.38c-1.164,3.872-3.093,7.64-2.968,11.791c-0.084,9.92,1.391,19.769,2.479,29.606
				c1.784,0.175,3.671,0.284,5.328-0.545c8.249-3.734,16.681-7.147,25.457-9.458c-0.022,0.843-0.046,1.692-0.052,2.541
				c-3.66,2.449-7.316,4.916-11.162,7.066c-6.885,3.854-13.555,8.073-20.393,12.002c-0.221-3.261-0.342-6.524-0.75-9.762
				c-4.014,0.215-8.039,0.109-12.063,0.195c-0.774-4.976-1.29-9.995-2.054-14.985c-1.399,3.361-2.483,6.82-3.751,10.225
				c-5.601-1.374-11.162-3.138-16.927-3.623c-4.17,0.264-8.294,1.259-12.286,2.447c-1.076,1.471-1.296,3.479-2.019,5.159
				c4.457-1.382,8.982-2.518,13.534-3.527c0.301,1.649,0.734,3.267,0.904,4.944c-1.555,3.077-3.631,5.879-5.495,8.779
				c-1.411,0.278-4.394,0.318-4.093-1.764c1.601-1.233,2.696-2.825,3.057-4.83c-2.492-0.068-4.62,1.451-5.839,3.539
				c-0.975,1.882-1.558,3.958-2.619,5.788c-1.918,1.652-4.399,2.642-5.959,4.712c-2.369,3.086-4.434,6.378-6.605,9.59
				c-1.437,2.197-3.135,4.305-3.749,6.912c-2.527,9.14-3.963,18.533-5.856,27.813c-2.633,12.519-3.66,25.278-5.099,37.972
				c-0.84,9.688-1.509,19.394-2.14,29.096c-0.092,1.695-0.505,3.355-0.591,5.062c0.706,2.971,2.782,5.289,5.323,6.9
				c0.617-5.725,0.556-11.478,0.932-17.211c1.563-16.84,2.246-33.759,3.582-50.628c1.291-10.044,2.954-20.044,4.835-29.999
				c0.559-2.69,1.035-5.461,2.289-7.936c2.667-5.498,5.908-10.763,10.009-15.309c1.81-2.122,4.531-3.109,7.242-3.427
				c5.107-0.591,10.207,0.373,15.208,1.325c8.269,1.316,16.674,2.549,25.061,1.861c2.871-0.146,5.332-1.804,7.558-3.473
				c3.394-2.622,6.554-5.576,10.299-7.695c5.237-2.986,11.048-4.781,16.903-6.095c4.439-0.843,8.978-1.798,13.515-1.159
				c7.345,0.953,14.3,3.683,21.214,6.221c9.545,3.006,17.584,9.608,24.055,17.079c-2.551,3.057-5.559,5.859-9.213,7.52
				c-1.365,0.74-2.461-0.599-3.298-1.494c-2.966-3.456-5.735-7.236-9.671-9.665c-6.465-4.067-13.311-7.531-20.414-10.333
				c-5.029-1.899-10.549-1.408-15.777-0.835c-4.131,0.743-8.308,1.402-12.334,2.613c-2.945,1.021-5.625,2.753-7.801,4.973
				c2.424,0.063,4.86,0.335,7.272-0.023c5.642-0.751,11.276-1.491,16.915-2.24c4.031-0.531,7.943,0.834,11.811,1.775
				c2.191,0.757,4.469,1.285,6.613,2.186c5.947,3.023,12.175,5.771,17.242,10.204c-1.756,2.762-4.01,5.134-6.301,7.448
				c-4.924,5.354-11.383,9.301-18.437,11.131c-5.71,1.388-11.521,3.281-17.476,2.526c-4.623-0.427-8.9-2.3-13.264-3.743
				c-0.973-0.281-2.021-0.634-3.035-0.275c-3.15,3.924-6.855,7.359-10.529,10.79c0.958,0.846,1.693,2.168,2.916,2.59
				c6.379-0.032,12.449-2.423,18.797-2.733c8.59-0.367,17.443-0.143,25.588,2.917c1.506,0.777,3.779,1.652,3.539,3.737
				c-0.428,7.362-3.684,14.208-4.598,21.481c-0.52,3.786,0.564,7.675-0.401,11.392c-3.438-2.825-5.019-7.336-8.67-9.978
				c-5.747-4.087-12.246-7.118-19.05-8.945c-5.316-1.468-10.846-1.767-16.299-2.352c-0.771-0.155-1.77-0.158-2.137-1.001
				c-1.262-2.463-1.32-5.314-1.914-7.961c-0.814-4.096-3.518-7.5-4.808-11.383c2.39-4.463,5.153-8.719,7.623-13.141
				c0.366-1.558,0.034-3.218,0.046-4.812c-5.1,1.219-10.389,0.507-15.479,1.755c0.07,1.01,0.153,2.022,0.264,3.026
				c2.732,0.003,5.475,0.034,8.211,0.055c0.178,0.734,0.357,1.474,0.545,2.208c-3.717,1.136-7.95,0.548-11.3,2.773
				c-2.357,2.682-5.191,5.117-8.693,6.106c-4.368,1.408-8.977,1.95-13.54,2.289c-6.006,0.456-11.673-2.762-15.757-6.917
				c-0.654-3.121-1.07-6.453,0.086-9.521c1.336-3.198,2.306-6.579,4.273-9.476c1.781-1.641,3.47-3.7,6.017-4.09
				c3.539-1.411,7.374-1.434,11.122-1.273c2.397,0.373,4.485,2.128,6.992,1.853c1.79-0.049,3.493,0.62,5.249,0.869
				c-1.187-3.511-4.97-5.166-8.36-5.768c-3.597-0.76-7.271-1.457-10.964-1.136c-3.212,0.528-6.229,1.878-9.031,3.496
				c-3.341,1.896-5.555,5.188-7.511,8.389c-1.296,2.028-1.721,4.468-1.681,6.849c0.057,4.532,0.307,9.172,1.933,13.457
				c0.923,2.38,1.606,4.881,1.623,7.451c-0.086,1.964-1.101,3.7-1.821,5.489c-1.202,2.919-2.618,5.762-4.359,8.409
				c-1.541,2.409-2.544,5.627-0.927,8.266c3.178,5.363,6.958,10.354,10.546,15.441c0.777,1.15,1.222,2.483,1.448,3.84
				c0.43,4.795-0.198,9.602-0.949,14.326c-0.29,1.563-0.456,3.167-1.047,4.646c-1.451,3.241-4.119,5.828-5.289,9.209
				c-0.646,1.755,1.23,2.888,2.633,3.358c6.218,2.073,12.054,5.079,18.04,7.72c5.266,2.435,10.565,4.83,15.722,7.491
				c7.304,3.464,15.014,6.522,21.197,11.876c2.959,2.917,5.529,6.536,9.564,8.056c0.733,0.31,1.651,0.141,2.053-0.6
				c1.498-2.142,1.649-4.855,2.76-7.164c2.553-5.151,5.84-9.869,8.775-14.799c3.346-6.083,6.717-12.172,9.958-18.306
				c-0.184-1.764-2.214-2.375-3.396-3.378c-1.457-1.334-3.207,0.106-4.652,0.706c-1.697,1.457-2.013,3.875-2.426,5.954
				c-0.471,3.889-1.883,7.572-3.069,11.294c-1.17,3.298-2.235,6.645-3.797,9.782c-1.343,2.289-3.84,4.351-6.631,4.162
				c-2.667-1.079-4.589-3.436-7.276-4.508c-7.342-2.894-14.525-6.167-21.788-9.247c-6.31-2.46-11.962-6.321-17.271-10.479
				c-1.687-1.185-1.985-3.96-0.367-5.334c3.252-0.814,6.688-0.516,9.906-1.5c2.584-0.794,5.196-1.442,7.818-2.062
				c7.452-2.059,15.25-1.881,22.892-2.619c7.269-0.576,14.478-2.001,21.791-1.999c2.187-0.097,3.606,2.309,5.793,1.93
				c2.868-0.054,5.788-1.107,8.61-0.175c1.117,2.082-0.478,4.058-1.223,5.948c2.695,0.258,5.387-0.218,8.081-0.152
				c12.849,0.301,25.681,1.649,38.54,0.88c1.793-0.247,3.803,0.066,5.073,1.457c0.838,1.918,1.34,3.966,2.18,5.888
				c0.897,2.398,2.446,4.543,2.911,7.093c0.488,2.742,0.229,5.621-0.854,8.185c-1.439,3.447-3.028,6.834-4.439,10.296
				c1.509,2.274,3.764,3.952,5.747,5.802c1.168,1.293,3.043,1.219,4.612,1.637c0.929-3.877,0.476-7.973,1.933-11.724
				c0.924-2.469,1.17-5.263,2.726-7.448c1.016,0.023,1.235,0.949,1.278,1.781c0.218,3.155,1.897,6.393,4.795,7.853
				c3.101,1.764,5.96,3.955,9.195,5.46c1.909-0.201,3.751-0.76,5.635-1.127c-4.825-2.429-8.817-6.565-10.825-11.607
				c-2.104-6.688-2.181-13.778-3.629-20.604c-0.847-3.829-4.146-6.353-7.281-8.352c-4.021-2.682-9.055-2.713-13.715-3.063
				c-11.587-0.39-23.162-1.219-34.726-2.114c-1.71-0.143-3.447-0.169-5.117-0.628c-0.233-0.897-0.47-1.784-0.724-2.673
				c12.236-0.106,23.994-3.915,35.695-7.049c6.906-2.28,14.088-3.517,21.129-5.237c1.189-1.205-0.244-2.816-0.705-4.055
				c-4.879,0.923-9.853,1.336-14.664,2.633c-11.489,3.315-23.328,5.254-34.748,8.822c-4.153,1.084-8.498,1.529-12.786,1.262
				c1.807-1.881,4.435-2.556,6.616-3.889c4.549-2.633,9.158-5.174,13.986-7.273c6.998-3.494,13.244-8.277,19.391-13.067
				c6.824-5.965,14.089-11.429,21.584-16.505c5.666,12.748,9.084,26.354,14.578,39.173c1.166,2.636,3.881,4.133,6.444,5.134
				c7.491,1.408,15.021,2.667,22.442,4.419c7.792,2.429,15.062,6.195,22.52,9.484c6.154,2.63,11.208,7.142,16.438,11.208
				c3.293-1.551,2.702-5.785,2.987-8.805c-3.451-2.225-6.985-4.333-10.646-6.197c-9.286-4.25-18.556-8.547-27.929-12.613
				c-6.227-2.659-13.17-2.51-19.807-2.177c-3.049,0.209-5.877-1.617-7.893-3.734c-2.28-4.159-2.938-8.968-4.113-13.505
				c-1.863-9.533-6.255-18.28-10.178-27.085c-1.747-4.362-3.221-8.822-4.592-13.311c-0.717-2.312-1.162-4.738-2.449-6.832
				c-4.137-7.132-8.839-13.915-13.417-20.775c-2.75-3.281-6.011-6.103-9.243-8.905c-2.997-2.452-5.891-5.148-9.363-6.915
				c-4.955-2.05-10.549-3.427-14.263-7.571c-0.577-0.548-0.144-1.391-0.043-2.031c1.238-4.744,2.593-9.456,3.757-14.208
				c-3.32-0.398-6.668-0.866-10.021-0.697c-2.898,0.364-5.621,1.526-8.479,2.105c-5.615,1.107-10.967,3.201-16.369,5.016
				c-3.764,1.42-7.842,1.641-11.652,2.911c-3.387,1.147-6.789,2.377-10.385,2.69c-0.248-6.682-0.195-13.474,1.354-20.018
				c1.216-5.633,2.785-11.182,4.136-16.784c1.356-6.177,4.388-11.813,7.509-17.259c1.621-2.65,3.348-5.486,6.191-6.963
				c1.841-0.969,3.846-1.738,5.314-3.267c3.338-3.479,7.037-6.789,11.518-8.687c1.663-0.686,4.365-1.23,4.984,1.072
				c-3.006,3.797-6.65,7.202-8.695,11.676c-2.141,4.419-3.964,8.979-6.104,13.396c-3.388,6.915-8.014,13.113-11.609,19.904
				c-2.604,6.014-3.906,12.501-5.26,18.883c1.133-0.863,2.42-1.641,3.108-2.931c2.443-4.764,5.168-9.381,7.949-13.944
				c5.467-8.334,12.194-15.771,17.604-24.137c3.769-6.436,5.02-14.065,9.197-20.297c1.035-1.612,2.594-2.753,4.121-3.854
				c-2.406-1.021-4.807-2.051-7.279-2.905C356.697,43.528,353.651,42.917,350.6,42.355z M295.523,149.766
				c-0.043,1.595-0.155,3.181-0.229,4.772c4.038-1.336,8.283-1.807,12.338-3.058c0.342,1.388,0.67,2.776,0.986,4.176
				c-4.217,0.568-8.307,1.792-12.539,2.297c0.16,0.691,0.31,1.402,0.441,2.114c5.513-0.129,11.019-0.556,16.531-0.439
				c-0.092-3.238-0.293-6.47-0.438-9.699C306.926,149.505,301.225,149.528,295.523,149.766z M340.092,152.846
				c-1.688,2.553-1.75,6.189,0.047,8.708c3.326,3.418,9.979,1.649,11.352-2.891c0.628-1.25-0.062-2.561-0.391-3.792
				c-0.545-2.148-2.575-3.579-4.687-3.98C344.244,151.017,341.467,150.793,340.092,152.846z M277.484,161.909
				c-3.373,2.63-3.444,9.55,1.147,10.93c3.78,1.489,8.294-1.236,8.965-5.188c-0.324-2.656-1.64-5.593-4.491-6.298
				C281.263,160.885,279.25,161.252,277.484,161.909z"/>
		</g>
		<path fill="#F7EC25" d="M294.319,127.141c-3.201-1.027-6.458-1.853-9.803-2.266c-0.109,1.833-0.284,3.875,0.932,5.415
			c0.886,1.385,2.679,2.742,2.028,4.569c-0.594,1.689-0.258,3.459,0.143,5.148c1.761,0.608,3.516,1.228,5.277,1.847
			c1.411-3.918,2.518-8.007,2.375-12.198C295.053,128.778,294.663,127.972,294.319,127.141z"/>
		<path fill="#F7EC25" d="M403.887,161.083c-1.651-0.118-3.373-0.86-4.99-0.479c-4.201,3.852-8.254,7.861-12.579,11.572
			c-5.753,4.552-11.282,9.45-16.188,14.925c-3.146,3.458-3.777,8.242-5.406,12.458c-1.996,5.064-3.844,10.565-2.951,16.072
			c0.422-0.063,1.281-0.184,1.703-0.235c0.933-1.664,1.021-3.631,1.562-5.429c1.137-4.101,2.301-8.343,4.893-11.799
			c2.105-2.791,4.521-5.32,6.795-7.973c1.392-1.577,2.354-3.68,4.414-4.511c0.869,2.957,0.305,6.069,0.401,9.103
			c-0.178,4.807,0.817,9.711-0.372,14.443c-0.503,2.478-2.881,3.708-4.531,5.346c-3.955,3.387-7.742,7.127-12.447,9.479
			c-3.441,1.864-6.684,4.07-10.152,5.882c-0.93,0.338-0.643,1.488-0.607,2.24c5.22-2.547,10.182-5.63,15.138-8.65
			c7.623-5.561,15.424-10.884,22.886-16.66c7.781-5.943,15.068-12.513,22.996-18.272c-1.423-5.446-3.167-10.792-4.907-16.141
			C408.275,168.385,406.021,164.743,403.887,161.083z"/>
		<path fill="#F7EC25" d="M298.147,184.858c-2.432-0.241-4.875-0.743-7.322-0.556c-3.049,1.162-5.191,4.055-8.403,4.893
			c-5.039,1.073-10.399,0.786-15.177,2.954c-3.906,1.712-7.864,3.499-11.311,6.057c-1.342,0.918-1.339,2.753-0.981,4.162
			c0.467,2.16,2.008,3.829,3,5.73c1.698,3.215,2.771,6.737,4.761,9.794c1.666,2.564,2.994,5.397,5.162,7.594
			c8.14-7.468,15.063-16.121,22.17-24.544c-0.33-3.04-0.901-6.052-1.147-9.086c0.476-1.514,1.652-2.768,2.811-3.82
			C293.762,186.766,296.662,187.044,298.147,184.858z"/>
		<path fill="#F7EC25" d="M314.721,206.145c-0.553-0.746-1.49-0.321-2.244-0.25c-6.623,1.316-13.365,1.919-19.993,3.244
			c-1.004,0.631-1.738,1.592-2.57,2.427c-3.43,3.688-7.043,7.33-9.473,11.796c-2.722,4.89-5.619,9.679-8.495,14.483
			c-0.892,1.485-1.583,3.06-2.183,4.683c2.103,0.949,4.199,1.924,6.333,2.796c1.956-2.377,3.906-4.75,5.67-7.276
			c1.359-2.34,2.383-4.875,3.863-7.152c0.686,3.473,1.119,6.989,1.675,10.485c2.352-0.212,4.698-0.373,7.038-0.646
			c1.061-6.912,1.741-13.89,1.483-20.899c0.982-0.158,1.973-0.304,2.954-0.436c0.308,6.797-0.271,13.632,0.617,20.392
			c2.134-0.298,4.265-0.574,6.396-0.84c0.946-7.179,0.598-14.452,1.721-21.61c0.953-0.321,1.896-0.64,2.834-0.981
			c0.607,2.977,0.951,5.994,1.349,9.003c0.612,4.405-0.274,8.819-0.567,13.207c2.182-0.141,4.358-0.339,6.532-0.637
			c0.896-6.72,0.909-13.551,2.431-20.176c1.235,1.391,2.596,2.705,3.512,4.333c0.131,5.225,0.07,10.459,0.478,15.688
			c1.789,0.095,3.591-0.034,5.377-0.129c0.272-3.631,0.45-7.273,0.703-10.898c1.962,1.93,3.726,4.056,5.688,5.986
			c2.33,1.548,5.445,1.551,7.654,3.347c1.262,1.053,1.305,2.705,1.33,4.219c2.483,0.052,5.549-0.562,6.557-3.149
			c0.588-2.696-1.578-5.277-4.078-5.997c-4.434-1.411-9.232-2.44-12.831-5.575C327.641,219.357,321.197,212.732,314.721,206.145z"/>
		<path fill="#F7EC25" d="M267.021,245.961c-2.249-0.751-4.032,0.96-5.294,2.587c1.403,0.806,3.58,1.001,4.027,2.848
			c0.207,2.103-0.536,4.147-1.021,6.167c0.897,0.181,1.79,0.381,2.685,0.562c1.675-1.339,3.433-3.066,3.461-5.375
			C271.174,250.036,270.403,246.081,267.021,245.961z"/>
		<path fill="#F7EC25" d="M520.619,541.85c0,0-58.604-16.449-108.673-12.8c-57.313,4.173-108.903,28.287-142.18,24.354
			c-13.723-1.62-53.109-15.344-53.109-15.344s39.417-146.736,61.004-170.436c12.054-13.234,41.494-59.025,41.494-59.025
			l155.278-19.854c0,0,27.808,35.196,32.459,77.407c2.541,23.093-20.051,54.354-15.639,69.015
			C495.631,449.729,520.619,541.85,520.619,541.85z"/>
		<g id="Shoes_10_">
			<g>
				<path fill="#F7EC25" d="M116.143,578.405c0-36.128,29.282-65.407,65.404-65.407s65.404,29.285,65.404,65.407H116.143
					L116.143,578.405z"/>
			</g>
			<g>
				<path fill="#F7EC25" d="M393.355,578.225c0-36.122-29.287-65.403-65.406-65.403c-36.125,0-65.407,29.284-65.407,65.403H393.355z
					"/>
			</g>
		</g>
	</g>
	<g>
		<polygon fill="#F7EC25" points="232.479,270.238 229.247,242.095 241.892,178.873 245.604,156.804 251.758,141.851 
			266.333,112.603 270.939,84.629 295.282,52.983 321.696,40.961 340.1,40.961 380.444,48.048 402.826,76.796 422.408,152.887 
			455.416,211.075 506.891,255.276 494.581,275.418 422.965,294.441 330.902,302.833 310.629,293.323 		"/>
		<g>
			<path fill="#020202" d="M372.758,40.118c4.131,0.453,8.41,0.141,12.355,1.638c4.913,1.752,10.176,2.423,14.891,4.724
				c3.647,1.772,7.445,3.355,10.676,5.859c8.263,6.396,15.676,13.861,22.254,21.966c4.027,4.666,6.916,10.167,9.367,15.794
				c4.528,10.68,7.971,21.819,10.386,33.165c1.206,4.835,0.444,9.852,1.228,14.747c0.307,4.342,0.965,8.653,1.969,12.903
				c2.881,8.257,5.752,16.609,10.08,24.255c2.159,3.335,4.565,6.524,6.487,10.018c13.407,23.13,25.595,46.946,38.545,70.323
				c0.536,1.939,1.354,3.814,1.632,5.808c-0.32,3.734-0.32,7.637-2.059,11.053c-2.834,4.153-6.74,7.385-10.893,10.118
				c-6.351,2.802-13.386,3.152-20.006,5.056c-7.986,2.134-16.234,2.888-24.279,4.738c-15.043,3.098-30.067,6.261-45.107,9.35
				c-2.35,0.453-4.736,0.56-7.066,1.084c-5.729,1.451-11.885,0.275-17.479,2.392c-3.312,1.165-6.524,2.633-9.92,3.522
				c-9.2,1.586-18.527,2.036-27.825,2.812c-4.204,0.457-8.257-1.16-12.43-1.172c-3.832-0.08-7.666-0.102-11.489-0.383
				c-1.692-0.146-3.465-0.312-4.916-1.283c-3.853-2.68-6.166-7.13-10.241-9.517c-3.828-1.997-8.148,0.367-12.131-0.829
				c-8.65-2.326-17.38-4.511-25.734-7.798c-9.046-3.975-17.747-8.679-26.495-13.276c-2.134-1.245-4.468-2.177-6.436-3.7
				c-1.199-0.863-2.793-0.918-3.992-1.772c-2.019-1.956-4.775-3.614-5.128-6.677c-0.381-4.724-0.924-9.481-0.471-14.222
				c0.625-7.457,1.205-14.931,1.928-22.373c1.663-13.193,3.895-26.305,5.845-39.46c1.744-9.444,3.731-18.843,5.911-28.187
				c1.574-6.978,3.995-13.732,6.533-20.409c0.929-2.286,1.735-4.775,3.668-6.424c1.847-1.578,3.597-3.344,5.839-4.328
				c1.072-4.376,2.194-8.739,3.29-13.109c2.36-9.045,4.161-18.237,6.427-27.312c1.147-5.885,4.079-11.177,6.312-16.68
				c1.976-3.335,4.285-6.582,7.382-8.974c3.424-2.954,6.725-6.068,10.545-8.523c6.656-4.514,13.497-8.765,20.626-12.476
				c9.219-4.566,19.684-5.53,29.799-5.991C352.653,37.869,362.646,39.63,372.758,40.118z M335.543,41.44
				c-6.322,0.686-12.682,1.62-18.732,3.648c-5.551,2.498-10.586,5.974-16.104,8.532c-4.514,1.99-8.449,5.099-11.934,8.546
				c-4.835,4.578-7.939,10.549-11.547,16.066c-1.044,1.764-2.736,3.531-2.243,5.753c0.488,0.565,0.947,1.296,1.692,1.503
				c0.568-0.278,0.757-0.958,1.101-1.44c2.876-4.927,6.184-9.619,10.055-13.824c0.964-1.084,2.022-2.105,3.264-2.856
				c5.833-3.41,11.324-7.371,17.099-10.878c4.336-2.679,9.279-4.342,14.316-5.071c2.729-0.135,5.547-0.39,7.989-1.724
				c5.065-2.581,9.968-5.489,15.009-8.128C342.191,41.316,338.818,40.304,335.543,41.44z M350.6,42.355
				c-1.594,1.663-3.225,3.304-4.977,4.807c-2.722,2.478-6.542,3.143-9.357,5.492c-5.008,4.012-9.08,9.034-13.737,13.425
				c-4.595,4.747-6.41,11.3-8.541,17.38c-1.164,3.872-3.093,7.64-2.968,11.791c-0.084,9.92,1.391,19.769,2.479,29.606
				c1.784,0.175,3.671,0.284,5.328-0.545c8.249-3.734,16.681-7.147,25.457-9.458c-0.022,0.843-0.046,1.692-0.052,2.541
				c-3.66,2.449-7.316,4.916-11.162,7.066c-6.885,3.854-13.555,8.073-20.393,12.002c-0.221-3.261-0.342-6.524-0.75-9.762
				c-4.014,0.215-8.039,0.109-12.063,0.195c-0.774-4.976-1.29-9.995-2.054-14.985c-1.399,3.361-2.483,6.82-3.751,10.225
				c-5.601-1.374-11.162-3.138-16.927-3.623c-4.17,0.264-8.294,1.259-12.286,2.447c-1.076,1.471-1.296,3.479-2.019,5.159
				c4.457-1.382,8.982-2.518,13.534-3.527c0.301,1.649,0.734,3.267,0.904,4.944c-1.555,3.077-3.631,5.879-5.495,8.779
				c-1.411,0.278-4.394,0.318-4.093-1.764c1.601-1.233,2.696-2.825,3.057-4.83c-2.492-0.068-4.62,1.451-5.839,3.539
				c-0.975,1.882-1.558,3.958-2.619,5.788c-1.918,1.652-4.399,2.642-5.959,4.712c-2.369,3.086-4.434,6.378-6.605,9.59
				c-1.437,2.197-3.135,4.305-3.749,6.912c-2.527,9.14-3.963,18.533-5.856,27.813c-2.633,12.519-3.66,25.278-5.099,37.972
				c-0.84,9.688-1.509,19.394-2.14,29.096c-0.092,1.695-0.505,3.355-0.591,5.062c0.706,2.971,2.782,5.289,5.323,6.9
				c0.617-5.725,0.556-11.478,0.932-17.211c1.563-16.84,2.246-33.759,3.582-50.628c1.291-10.044,2.954-20.044,4.835-29.999
				c0.559-2.69,1.035-5.461,2.289-7.936c2.667-5.498,5.908-10.763,10.009-15.309c1.81-2.122,4.531-3.109,7.242-3.427
				c5.107-0.591,10.207,0.373,15.208,1.325c8.269,1.316,16.674,2.549,25.061,1.861c2.871-0.146,5.332-1.804,7.558-3.473
				c3.394-2.622,6.554-5.576,10.299-7.695c5.237-2.986,11.048-4.781,16.903-6.095c4.439-0.843,8.978-1.798,13.515-1.159
				c7.345,0.953,14.3,3.683,21.214,6.221c9.545,3.006,17.584,9.608,24.055,17.079c-2.551,3.057-5.559,5.859-9.213,7.52
				c-1.365,0.74-2.461-0.599-3.298-1.494c-2.966-3.456-5.735-7.236-9.671-9.665c-6.465-4.067-13.311-7.531-20.414-10.333
				c-5.029-1.899-10.549-1.408-15.777-0.835c-4.131,0.743-8.308,1.402-12.334,2.613c-2.945,1.021-5.625,2.753-7.801,4.973
				c2.424,0.063,4.86,0.335,7.272-0.023c5.642-0.751,11.276-1.491,16.915-2.24c4.031-0.531,7.943,0.834,11.811,1.775
				c2.191,0.757,4.469,1.285,6.613,2.186c5.947,3.023,12.175,5.771,17.242,10.204c-1.756,2.762-4.01,5.134-6.301,7.448
				c-4.924,5.354-11.383,9.301-18.437,11.131c-5.71,1.388-11.521,3.281-17.476,2.526c-4.623-0.427-8.9-2.3-13.264-3.743
				c-0.973-0.281-2.021-0.634-3.035-0.275c-3.15,3.924-6.855,7.359-10.529,10.79c0.958,0.846,1.693,2.168,2.916,2.59
				c6.379-0.032,12.449-2.423,18.797-2.733c8.59-0.367,17.443-0.143,25.588,2.917c1.506,0.777,3.779,1.652,3.539,3.737
				c-0.428,7.362-3.684,14.208-4.598,21.481c-0.52,3.786,0.564,7.675-0.401,11.392c-3.438-2.825-5.019-7.336-8.67-9.978
				c-5.747-4.087-12.246-7.118-19.05-8.945c-5.316-1.468-10.846-1.767-16.299-2.352c-0.771-0.155-1.77-0.158-2.137-1.001
				c-1.262-2.463-1.32-5.314-1.914-7.961c-0.814-4.096-3.518-7.5-4.808-11.383c2.39-4.463,5.153-8.719,7.623-13.141
				c0.366-1.558,0.034-3.218,0.046-4.812c-5.1,1.219-10.389,0.507-15.479,1.755c0.07,1.01,0.153,2.022,0.264,3.026
				c2.732,0.003,5.475,0.034,8.211,0.055c0.178,0.734,0.357,1.474,0.545,2.208c-3.717,1.136-7.95,0.548-11.3,2.773
				c-2.357,2.682-5.191,5.117-8.693,6.106c-4.368,1.408-8.977,1.95-13.54,2.289c-6.006,0.456-11.673-2.762-15.757-6.917
				c-0.654-3.121-1.07-6.453,0.086-9.521c1.336-3.198,2.306-6.579,4.273-9.476c1.781-1.641,3.47-3.7,6.017-4.09
				c3.539-1.411,7.374-1.434,11.122-1.273c2.397,0.373,4.485,2.128,6.992,1.853c1.79-0.049,3.493,0.62,5.249,0.869
				c-1.187-3.511-4.97-5.166-8.36-5.768c-3.597-0.76-7.271-1.457-10.964-1.136c-3.212,0.528-6.229,1.878-9.031,3.496
				c-3.341,1.896-5.555,5.188-7.511,8.389c-1.296,2.028-1.721,4.468-1.681,6.849c0.057,4.532,0.307,9.172,1.933,13.457
				c0.923,2.38,1.606,4.881,1.623,7.451c-0.086,1.964-1.101,3.7-1.821,5.489c-1.202,2.919-2.618,5.762-4.359,8.409
				c-1.541,2.409-2.544,5.627-0.927,8.266c3.178,5.363,6.958,10.354,10.546,15.441c0.777,1.15,1.222,2.483,1.448,3.84
				c0.43,4.795-0.198,9.602-0.949,14.326c-0.29,1.563-0.456,3.167-1.047,4.646c-1.451,3.241-4.119,5.828-5.289,9.209
				c-0.646,1.755,1.23,2.888,2.633,3.358c6.218,2.073,12.054,5.079,18.04,7.72c5.266,2.435,10.565,4.83,15.722,7.491
				c7.304,3.464,15.014,6.522,21.197,11.876c2.959,2.917,5.529,6.536,9.564,8.056c0.733,0.31,1.651,0.141,2.053-0.6
				c1.498-2.142,1.649-4.855,2.76-7.164c2.553-5.151,5.84-9.869,8.775-14.799c3.346-6.083,6.717-12.172,9.958-18.306
				c-0.184-1.764-2.214-2.375-3.396-3.378c-1.457-1.334-3.207,0.106-4.652,0.706c-1.697,1.457-2.013,3.875-2.426,5.954
				c-0.471,3.889-1.883,7.572-3.069,11.294c-1.17,3.298-2.235,6.645-3.797,9.782c-1.343,2.289-3.84,4.351-6.631,4.162
				c-2.667-1.079-4.589-3.436-7.276-4.508c-7.342-2.894-14.525-6.167-21.788-9.247c-6.31-2.46-11.962-6.321-17.271-10.479
				c-1.687-1.185-1.985-3.96-0.367-5.334c3.252-0.814,6.688-0.516,9.906-1.5c2.584-0.794,5.196-1.442,7.818-2.062
				c7.452-2.059,15.25-1.881,22.892-2.619c7.269-0.576,14.478-2.001,21.791-1.999c2.187-0.097,3.606,2.309,5.793,1.93
				c2.868-0.054,5.788-1.107,8.61-0.175c1.117,2.082-0.478,4.058-1.223,5.948c2.695,0.258,5.387-0.218,8.081-0.152
				c12.849,0.301,25.681,1.649,38.54,0.88c1.793-0.247,3.803,0.066,5.073,1.457c0.838,1.918,1.34,3.966,2.18,5.888
				c0.897,2.398,2.446,4.543,2.911,7.093c0.488,2.742,0.229,5.621-0.854,8.185c-1.439,3.447-3.028,6.834-4.439,10.296
				c1.509,2.274,3.764,3.952,5.747,5.802c1.168,1.293,3.043,1.219,4.612,1.637c0.929-3.877,0.476-7.973,1.933-11.724
				c0.924-2.469,1.17-5.263,2.726-7.448c1.016,0.023,1.235,0.949,1.278,1.781c0.218,3.155,1.897,6.393,4.795,7.853
				c3.101,1.764,5.96,3.955,9.195,5.46c1.909-0.201,3.751-0.76,5.635-1.127c-4.825-2.429-8.817-6.565-10.825-11.607
				c-2.104-6.688-2.181-13.778-3.629-20.604c-0.847-3.829-4.146-6.353-7.281-8.352c-4.021-2.682-9.055-2.713-13.715-3.063
				c-11.587-0.39-23.162-1.219-34.726-2.114c-1.71-0.143-3.447-0.169-5.117-0.628c-0.233-0.897-0.47-1.784-0.724-2.673
				c12.236-0.106,23.994-3.915,35.695-7.049c6.906-2.28,14.088-3.517,21.129-5.237c1.189-1.205-0.244-2.816-0.705-4.055
				c-4.879,0.923-9.853,1.336-14.664,2.633c-11.489,3.315-23.328,5.254-34.748,8.822c-4.153,1.084-8.498,1.529-12.786,1.262
				c1.807-1.881,4.435-2.556,6.616-3.889c4.549-2.633,9.158-5.174,13.986-7.273c6.998-3.494,13.244-8.277,19.391-13.067
				c6.824-5.965,14.089-11.429,21.584-16.505c5.666,12.748,9.084,26.354,14.578,39.173c1.166,2.636,3.881,4.133,6.444,5.134
				c7.491,1.408,15.021,2.667,22.442,4.419c7.792,2.429,15.062,6.195,22.52,9.484c6.154,2.63,11.208,7.142,16.438,11.208
				c3.293-1.551,2.702-5.785,2.987-8.805c-3.451-2.225-6.985-4.333-10.646-6.197c-9.286-4.25-18.556-8.547-27.929-12.613
				c-6.227-2.659-13.17-2.51-19.807-2.177c-3.049,0.209-5.877-1.617-7.893-3.734c-2.28-4.159-2.938-8.968-4.113-13.505
				c-1.863-9.533-6.255-18.28-10.178-27.085c-1.747-4.362-3.221-8.822-4.592-13.311c-0.717-2.312-1.162-4.738-2.449-6.832
				c-4.137-7.132-8.839-13.915-13.417-20.775c-2.75-3.281-6.011-6.103-9.243-8.905c-2.997-2.452-5.891-5.148-9.363-6.915
				c-4.955-2.05-10.549-3.427-14.263-7.571c-0.577-0.548-0.144-1.391-0.043-2.031c1.238-4.744,2.593-9.456,3.757-14.208
				c-3.32-0.398-6.668-0.866-10.021-0.697c-2.898,0.364-5.621,1.526-8.479,2.105c-5.615,1.107-10.967,3.201-16.369,5.016
				c-3.764,1.42-7.842,1.641-11.652,2.911c-3.387,1.147-6.789,2.377-10.385,2.69c-0.248-6.682-0.195-13.474,1.354-20.018
				c1.216-5.633,2.785-11.182,4.136-16.784c1.356-6.177,4.388-11.813,7.509-17.259c1.621-2.65,3.348-5.486,6.191-6.963
				c1.841-0.969,3.846-1.738,5.314-3.267c3.338-3.479,7.037-6.789,11.518-8.687c1.663-0.686,4.365-1.23,4.984,1.072
				c-3.006,3.797-6.65,7.202-8.695,11.676c-2.141,4.419-3.964,8.979-6.104,13.396c-3.388,6.915-8.014,13.113-11.609,19.904
				c-2.604,6.014-3.906,12.501-5.26,18.883c1.133-0.863,2.42-1.641,3.108-2.931c2.443-4.764,5.168-9.381,7.949-13.944
				c5.467-8.334,12.194-15.771,17.604-24.137c3.769-6.436,5.02-14.065,9.197-20.297c1.035-1.612,2.594-2.753,4.121-3.854
				c-2.406-1.021-4.807-2.051-7.279-2.905C356.697,43.528,353.651,42.917,350.6,42.355z M295.523,149.766
				c-0.043,1.595-0.155,3.181-0.229,4.772c4.038-1.336,8.283-1.807,12.338-3.058c0.342,1.388,0.67,2.776,0.986,4.176
				c-4.217,0.568-8.307,1.792-12.539,2.297c0.16,0.691,0.31,1.402,0.441,2.114c5.513-0.129,11.019-0.556,16.531-0.439
				c-0.092-3.238-0.293-6.47-0.438-9.699C306.926,149.505,301.225,149.528,295.523,149.766z M340.092,152.846
				c-1.688,2.553-1.75,6.189,0.047,8.708c3.326,3.418,9.979,1.649,11.352-2.891c0.628-1.25-0.062-2.561-0.391-3.792
				c-0.545-2.148-2.575-3.579-4.687-3.98C344.244,151.017,341.467,150.793,340.092,152.846z M277.484,161.909
				c-3.373,2.63-3.444,9.55,1.147,10.93c3.78,1.489,8.294-1.236,8.965-5.188c-0.324-2.656-1.64-5.593-4.491-6.298
				C281.263,160.885,279.25,161.252,277.484,161.909z"/>
		</g>
		<path fill="#020202" d="M294.319,127.141c-3.201-1.027-6.458-1.853-9.803-2.266c-0.109,1.833-0.284,3.875,0.932,5.415
			c0.886,1.385,2.679,2.742,2.028,4.569c-0.594,1.689-0.258,3.459,0.143,5.148c1.761,0.608,3.516,1.228,5.277,1.847
			c1.411-3.918,2.518-8.007,2.375-12.198C295.053,128.778,294.663,127.972,294.319,127.141z"/>
		<path fill="#020202" d="M403.887,161.083c-1.651-0.118-3.373-0.86-4.99-0.479c-4.201,3.852-8.254,7.861-12.579,11.572
			c-5.753,4.552-11.282,9.45-16.188,14.925c-3.146,3.458-3.777,8.242-5.406,12.458c-1.996,5.064-3.844,10.565-2.951,16.072
			c0.422-0.063,1.281-0.184,1.703-0.235c0.933-1.664,1.021-3.631,1.562-5.429c1.137-4.101,2.301-8.343,4.893-11.799
			c2.105-2.791,4.521-5.32,6.795-7.973c1.392-1.577,2.354-3.68,4.414-4.511c0.869,2.957,0.305,6.069,0.401,9.103
			c-0.178,4.807,0.817,9.711-0.372,14.443c-0.503,2.478-2.881,3.708-4.531,5.346c-3.955,3.387-7.742,7.127-12.447,9.479
			c-3.441,1.864-6.684,4.07-10.152,5.882c-0.93,0.338-0.643,1.488-0.607,2.24c5.22-2.547,10.182-5.63,15.138-8.65
			c7.623-5.561,15.424-10.884,22.886-16.66c7.781-5.943,15.068-12.513,22.996-18.272c-1.423-5.446-3.167-10.792-4.907-16.141
			C408.275,168.385,406.021,164.743,403.887,161.083z"/>
		<path fill="#020202" d="M298.147,184.858c-2.432-0.241-4.875-0.743-7.322-0.556c-3.049,1.162-5.191,4.055-8.403,4.893
			c-5.039,1.073-10.399,0.786-15.177,2.954c-3.906,1.712-7.864,3.499-11.311,6.057c-1.342,0.918-1.339,2.753-0.981,4.162
			c0.467,2.16,2.008,3.829,3,5.73c1.698,3.215,2.771,6.737,4.761,9.794c1.666,2.564,2.994,5.397,5.162,7.594
			c8.14-7.468,15.063-16.121,22.17-24.544c-0.33-3.04-0.901-6.052-1.147-9.086c0.476-1.514,1.652-2.768,2.811-3.82
			C293.762,186.766,296.662,187.044,298.147,184.858z"/>
		<path fill="#020202" d="M314.721,206.145c-0.553-0.746-1.49-0.321-2.244-0.25c-6.623,1.316-13.365,1.919-19.993,3.244
			c-1.004,0.631-1.738,1.592-2.57,2.427c-3.43,3.688-7.043,7.33-9.473,11.796c-2.722,4.89-5.619,9.679-8.495,14.483
			c-0.892,1.485-1.583,3.06-2.183,4.683c2.103,0.949,4.199,1.924,6.333,2.796c1.956-2.377,3.906-4.75,5.67-7.276
			c1.359-2.34,2.383-4.875,3.863-7.152c0.686,3.473,1.119,6.989,1.675,10.485c2.352-0.212,4.698-0.373,7.038-0.646
			c1.061-6.912,1.741-13.89,1.483-20.899c0.982-0.158,1.973-0.304,2.954-0.436c0.308,6.797-0.271,13.632,0.617,20.392
			c2.134-0.298,4.265-0.574,6.396-0.84c0.946-7.179,0.598-14.452,1.721-21.61c0.953-0.321,1.896-0.64,2.834-0.981
			c0.607,2.977,0.951,5.994,1.349,9.003c0.612,4.405-0.274,8.819-0.567,13.207c2.182-0.141,4.358-0.339,6.532-0.637
			c0.896-6.72,0.909-13.551,2.431-20.176c1.235,1.391,2.596,2.705,3.512,4.333c0.131,5.225,0.07,10.459,0.478,15.688
			c1.789,0.095,3.591-0.034,5.377-0.129c0.272-3.631,0.45-7.273,0.703-10.898c1.962,1.93,3.726,4.056,5.688,5.986
			c2.33,1.548,5.445,1.551,7.654,3.347c1.262,1.053,1.305,2.705,1.33,4.219c2.483,0.052,5.549-0.562,6.557-3.149
			c0.588-2.696-1.578-5.277-4.078-5.997c-4.434-1.411-9.232-2.44-12.831-5.575C327.641,219.357,321.197,212.732,314.721,206.145z"/>
		<path fill="#020202" d="M267.021,245.961c-2.249-0.751-4.032,0.96-5.294,2.587c1.403,0.806,3.58,1.001,4.027,2.848
			c0.207,2.103-0.536,4.147-1.021,6.167c0.897,0.181,1.79,0.381,2.685,0.562c1.675-1.339,3.433-3.066,3.461-5.375
			C271.174,250.036,270.403,246.081,267.021,245.961z"/>
		<path fill="#020202" d="M520.619,541.85c0,0-58.604-16.449-108.673-12.8c-57.313,4.173-108.903,28.287-142.18,24.354
			c-13.723-1.62-53.109-15.344-53.109-15.344s39.417-146.736,61.004-170.436c12.054-13.234,41.494-59.025,41.494-59.025
			l155.278-19.854c0,0,27.808,35.196,32.459,77.407c2.541,23.093-20.051,54.354-15.639,69.015
			C495.631,449.729,520.619,541.85,520.619,541.85z"/>
		<g id="Shoes_9_">
			<g>
				<path d="M116.143,578.405c0-36.128,29.282-65.407,65.404-65.407s65.404,29.285,65.404,65.407H116.143L116.143,578.405z"/>
			</g>
			<g>
				<path d="M393.355,578.225c0-36.122-29.287-65.403-65.406-65.403c-36.125,0-65.407,29.284-65.407,65.403H393.355z"/>
			</g>
		</g>
	</g>
</g>
</svg>
